<svg width="24" height="24" viewBox="0 0 24 24" fill="none" xmlns="http://www.w3.org/2000/svg">
<path d="M10.25 12.5H8.5C8.5 14.433 10.067 16 12 16C12.4923 16 12.9608 15.8982 13.3857 15.7148L14.3174 17.4893C13.6131 17.8168 12.828 18 12 18C8.96243 18 6.5 15.5376 6.5 12.5C6.5 10.9678 7.12686 9.58227 8.1377 8.58496L10.25 12.5Z" fill="#1B1B1B" style="fill:#1B1B1B;fill:color(display-p3 0.1059 0.1059 0.1059);fill-opacity:1;"/>
<path d="M12 7C15.0376 7 17.5 9.46243 17.5 12.5C17.5 14.05 16.8586 15.4505 15.8271 16.4502L13.75 12.5996H15.499C15.4999 12.5665 15.5 12.5333 15.5 12.5C15.5 10.567 13.933 9 12 9C11.4912 9 11.0075 9.10849 10.5713 9.30371L9.64062 7.53027C10.3556 7.19023 11.1556 7 12 7Z" fill="#1B1B1B" style="fill:#1B1B1B;fill:color(display-p3 0.1059 0.1059 0.1059);fill-opacity:1;"/>
<path fill-rule="evenodd" clip-rule="evenodd" d="M17 5H22V21H2V5H7L9 3H15L17 5ZM7.82812 7H4V19H20V7H16.1719L14.1719 5H9.82812L7.82812 7Z" fill="#1B1B1B" style="fill:#1B1B1B;fill:color(display-p3 0.1059 0.1059 0.1059);fill-opacity:1;"/>
</svg>
