<svg width="24" height="24" viewBox="0 0 24 24" fill="none" xmlns="http://www.w3.org/2000/svg">
<path fill-rule="evenodd" clip-rule="evenodd" d="M22 3V9C22 10.0143 21.6223 10.9404 21 11.6455V21H3V11.6455C2.37773 10.9404 2 10.0143 2 9V3H22ZM15 11.6455C14.2671 12.4759 13.1947 13 12 13C10.8053 13 9.73294 12.4759 9 11.6455C8.26706 12.4759 7.19469 13 6 13C5.6547 13 5.31962 12.9562 5 12.874V19H19V12.874C18.6804 12.9562 18.3453 13 18 13C16.8053 13 15.7329 12.4759 15 11.6455ZM4 9C4 10.1046 4.89543 11 6 11C7.10457 11 8 10.1046 8 9C8 8.44772 8.44772 8 9 8C9.55228 8 10 8.44772 10 9C10 10.1046 10.8954 11 12 11C13.1046 11 14 10.1046 14 9C14 8.44772 14.4477 8 15 8C15.5523 8 16 8.44772 16 9C16 10.1046 16.8954 11 18 11C19.1046 11 20 10.1046 20 9V5H4V9Z" fill="#1B1B1B" style="fill:#1B1B1B;fill:color(display-p3 0.1059 0.1059 0.1059);fill-opacity:1;"/>
</svg>
