<svg width="24" height="24" viewBox="0 0 24 24" fill="none" xmlns="http://www.w3.org/2000/svg">
<path fill-rule="evenodd" clip-rule="evenodd" d="M20 22.2764C20 22.5525 19.7761 22.7764 19.5 22.7764C19.4298 22.7764 19.36 22.761 19.2959 22.7324L12 19.0312L4.7041 22.7324C4.45197 22.845 4.15554 22.7325 4.04297 22.4805C4.01437 22.4163 4.00001 22.3465 4 22.2764V2H20V22.2764ZM10.5303 8.97754L7.84655 9.36765C7.60051 9.40342 7.50226 9.70578 7.68028 9.87934L9.62207 11.7725L9.16413 14.4459C9.12215 14.691 9.37937 14.8778 9.59943 14.7621L12 13.5L14.4006 14.7621C14.6206 14.8778 14.8778 14.691 14.8359 14.4459L14.3779 11.7725L16.3197 9.87934C16.4977 9.70578 16.3995 9.40342 16.1534 9.36765L13.4697 8.97754L12.269 6.545C12.159 6.32204 11.841 6.32204 11.731 6.545L10.5303 8.97754Z" fill="#1B1B1B" style="fill:#1B1B1B;fill:color(display-p3 0.1059 0.1059 0.1059);fill-opacity:1;"/>
</svg>
