<svg width="24" height="24" viewBox="0 0 24 24" fill="none" xmlns="http://www.w3.org/2000/svg">
<path fill-rule="evenodd" clip-rule="evenodd" d="M12 1L21 3V13.7891C21 13.9143 20.996 14.039 20.9883 14.1631C20.9805 14.2875 20.9694 14.4113 20.9541 14.5342C20.9223 14.7886 20.8729 15.0392 20.8096 15.2852C20.8018 15.3153 20.7924 15.345 20.7842 15.375C20.7583 15.4692 20.7305 15.5626 20.7002 15.6553C20.6834 15.7065 20.6646 15.7569 20.6465 15.8076C20.6208 15.8794 20.5948 15.9508 20.5664 16.0215C20.544 16.0773 20.5201 16.1324 20.4961 16.1875C20.4695 16.2484 20.4427 16.3092 20.4141 16.3691C20.3875 16.4249 20.3603 16.4803 20.332 16.5352C20.2985 16.6003 20.2635 16.6646 20.2275 16.7285C20.2008 16.7761 20.1735 16.8233 20.1455 16.8701C20.1017 16.9432 20.0557 17.0147 20.0088 17.0859C19.985 17.1221 19.9621 17.1587 19.9375 17.1943C19.8825 17.2741 19.8245 17.3516 19.7656 17.4287C19.7449 17.4559 19.7253 17.4839 19.7041 17.5107C19.6225 17.6139 19.5387 17.7156 19.4502 17.8135C19.3777 17.8936 19.3016 17.9706 19.2246 18.0469C19.1993 18.072 19.1733 18.0964 19.1475 18.1211C19.0839 18.1818 19.0195 18.2417 18.9531 18.2998C18.9365 18.3144 18.9201 18.3293 18.9033 18.3438C18.8153 18.4191 18.7256 18.4929 18.6328 18.5635C18.5338 18.6388 18.4324 18.7117 18.3281 18.7812L12 23L5.67188 18.7812C5.5676 18.7117 5.46618 18.6388 5.36719 18.5635C5.27423 18.4928 5.18391 18.4192 5.0957 18.3438C5.07888 18.3293 5.06254 18.3144 5.0459 18.2998C4.97952 18.2417 4.91508 18.1818 4.85156 18.1211C4.82576 18.0964 4.79973 18.072 4.77441 18.0469C4.69757 17.9707 4.62212 17.8934 4.5498 17.8135C4.46115 17.7154 4.37665 17.6141 4.29492 17.5107C4.27371 17.4839 4.25414 17.4559 4.2334 17.4287C4.17454 17.3516 4.1165 17.2741 4.06152 17.1943C4.03696 17.1587 4.01401 17.1221 3.99023 17.0859C3.94339 17.0147 3.89726 16.9432 3.85352 16.8701C3.82548 16.8233 3.79822 16.7761 3.77148 16.7285C3.73564 16.6648 3.70146 16.6002 3.66797 16.5352C3.63963 16.4801 3.61159 16.425 3.58496 16.3691C3.55638 16.3092 3.52952 16.2484 3.50293 16.1875C3.47889 16.1324 3.45501 16.0773 3.43262 16.0215C3.40428 15.9508 3.37819 15.8794 3.35254 15.8076C3.33441 15.7569 3.3156 15.7065 3.29883 15.6553C3.26853 15.5627 3.24163 15.4691 3.21582 15.375C3.20757 15.3449 3.19724 15.3154 3.18945 15.2852C3.065 14.802 3.00001 14.2998 3 13.7891V3L12 1ZM12 8.12109L9.87891 6L8.46484 7.41406L10.5859 9.53516H8V11.5352H11V12.5352H8V14.5352H11V16.5352H13V14.5352H16V12.5352H13V11.5352H16V9.53516H13.4141L15.5352 7.41406L14.1211 6L12 8.12109Z" fill="#1B1B1B" style="fill:#1B1B1B;fill:color(display-p3 0.1059 0.1059 0.1059);fill-opacity:1;"/>
</svg>
