<svg width="24" height="24" viewBox="0 0 24 24" fill="none" xmlns="http://www.w3.org/2000/svg">
<path d="M5.85605 9.07724C5.86429 9.31272 5.61031 9.46535 5.40625 9.34756L4.62987 8.89938C3.08293 12.5629 4.47105 16.8908 8.00389 18.9306C10.5569 20.4046 13.5851 20.3119 15.9736 18.9502L16.9658 20.6865C13.98 22.3887 10.1952 22.5055 7.00389 20.6631C2.51342 18.0704 0.794707 12.5206 2.8867 7.89353L2.01336 7.38884C1.80939 7.27097 1.81464 6.97476 2.02266 6.86419L5.28612 5.12955C5.48188 5.02549 5.71898 5.1624 5.72674 5.38395L5.85605 9.07724Z" fill="#1B1B1B" style="fill:#1B1B1B;fill:color(display-p3 0.1059 0.1059 0.1059);fill-opacity:1;"/>
<path d="M7.04198 3.31833C10.0278 1.61595 13.8125 1.50022 17.0039 3.34274C21.4946 5.93542 23.2143 11.4851 21.1221 16.1123L21.9949 16.6161C22.199 16.7339 22.1939 17.0302 21.9858 17.1408L18.7226 18.8753C18.5269 18.9793 18.2898 18.8424 18.282 18.6209L18.1527 14.9276C18.1445 14.6921 18.3984 14.5395 18.6025 14.6573L19.3789 15.1054C20.9258 11.4419 19.5369 7.11397 16.0039 5.07419C13.4509 3.60033 10.4228 3.69374 8.03416 5.05564L7.04198 3.31833Z" fill="#1B1B1B" style="fill:#1B1B1B;fill:color(display-p3 0.1059 0.1059 0.1059);fill-opacity:1;"/>
<path d="M15 9.99997L12 16H10.4854C10.2624 16 10.1173 15.7653 10.2171 15.5658L13 9.99997H8.99998V7.99997H15V9.99997Z" fill="#1B1B1B" style="fill:#1B1B1B;fill:color(display-p3 0.1059 0.1059 0.1059);fill-opacity:1;"/>
</svg>
