<svg width="24" height="24" viewBox="0 0 24 24" fill="none" xmlns="http://www.w3.org/2000/svg">
<path d="M12.21 7.79297C12.9139 7.79299 13.5297 7.9547 14.0576 8.27734C14.5856 8.60001 14.9271 9.05835 15.0811 9.65234L13.541 10.5205C13.4237 10.1908 13.2403 9.93423 12.9912 9.75098C12.7492 9.56764 12.4516 9.47559 12.0996 9.47559C11.7993 9.47562 11.5538 9.54551 11.3633 9.68457C11.18 9.82383 11.088 10.0038 11.0879 10.2236C11.0879 10.3923 11.1498 10.536 11.2744 10.6533C11.4064 10.7707 11.5681 10.8661 11.7588 10.9395C11.9494 11.0128 12.2213 11.1039 12.5732 11.2139C13.1157 11.3752 13.5553 11.537 13.8926 11.6982C14.2299 11.8522 14.5231 12.087 14.7725 12.4023C15.0217 12.7176 15.1465 13.1279 15.1465 13.6338C15.1465 14.2278 14.9891 14.7119 14.6738 15.0859C14.3658 15.4599 13.9771 15.7317 13.5078 15.9004C13.0385 16.0617 12.5577 16.1416 12.0664 16.1416C11.326 16.1415 10.6481 15.9729 10.0322 15.6357C9.41634 15.2911 9.00518 14.7965 8.7998 14.1514L10.3174 13.2822C10.4787 13.6562 10.7135 13.946 11.0215 14.1514C11.3368 14.3567 11.7075 14.459 12.1328 14.459C12.448 14.459 12.701 14.4004 12.8916 14.2832C13.0896 14.1586 13.1884 13.9787 13.1885 13.7441C13.1885 13.5535 13.1232 13.3952 12.9912 13.2705C12.8593 13.1459 12.694 13.0435 12.4961 12.9629C12.2981 12.8822 12.0194 12.7901 11.6602 12.6875C11.1322 12.5335 10.6987 12.3796 10.3613 12.2256C10.0316 12.0716 9.74574 11.8409 9.50391 11.5332C9.26191 11.2179 9.14062 10.8068 9.14062 10.3008C9.14066 9.74375 9.28359 9.27818 9.56934 8.9043C9.86267 8.5303 10.2411 8.25169 10.7031 8.06836C11.1724 7.88506 11.6747 7.79297 12.21 7.79297Z" fill="#1B1B1B" style="fill:#1B1B1B;fill:color(display-p3 0.1059 0.1059 0.1059);fill-opacity:1;"/>
<path fill-rule="evenodd" clip-rule="evenodd" d="M15.3135 4.00098H20V8.6875L23.3135 12.001L20 15.3145V20.001H15.3135L12 23.3145L8.68652 20.001H4V15.3145L0.686523 12.001L4 8.6875V4.00098H8.68652L12 0.6875L15.3135 4.00098ZM9.51465 6.00098H6V9.51562L3.51465 12.001L6 14.4863V18.001H9.51465L12 20.4863L14.4854 18.001H18V14.4863L20.4854 12.001L18 9.51562V6.00098H14.4854L12 3.51562L9.51465 6.00098Z" fill="#1B1B1B" style="fill:#1B1B1B;fill:color(display-p3 0.1059 0.1059 0.1059);fill-opacity:1;"/>
</svg>
