<svg width="24" height="24" viewBox="0 0 24 24" fill="none" xmlns="http://www.w3.org/2000/svg">
<path d="M21.5353 15.8792L19.4133 18.0013L21.5353 20.1214L20.1213 21.5355L17.9992 19.4154L15.8791 21.5355L14.4641 20.1214L16.5861 18.0003L14.4641 15.8792L15.8791 14.4642L18.0002 16.5863L20.1213 14.4642L21.5353 15.8792Z" fill="#1B1B1B" style="fill:#1B1B1B;fill:color(display-p3 0.1059 0.1059 0.1059);fill-opacity:1;"/>
<path d="M12.0012 4.52865C14.3501 2.42035 17.9798 2.49011 20.2424 4.75717C22.5048 7.02422 22.5831 10.6365 20.4797 12.9925L19.0598 11.5746C20.3898 10.0505 20.3202 7.66005 18.8273 6.17025C17.3248 4.67113 14.9077 4.60721 13.3371 6.01693L12.0021 7.21518L10.6662 6.01791C9.09109 4.60607 6.67458 4.66872 5.17109 6.17221C3.68178 7.66194 3.60699 10.0476 4.97968 11.6234L13.4123 20.0687L12.0002 21.4847L3.52168 12.9935C1.41735 10.6375 1.49538 7.01882 3.75703 4.75717C6.02124 2.49301 9.64538 2.41701 12.0012 4.52865Z" fill="#1B1B1B" style="fill:#1B1B1B;fill:color(display-p3 0.1059 0.1059 0.1059);fill-opacity:1;"/>
</svg>
