<svg width="24" height="24" viewBox="0 0 24 24" fill="none" xmlns="http://www.w3.org/2000/svg">
<path d="M8.5 22H6.5L5.5 17H2.5V7H8.5V22Z" fill="#1B1B1B" style="fill:#1B1B1B;fill:color(display-p3 0.1059 0.1059 0.1059);fill-opacity:1;"/>
<path d="M20.5 10.0635C21.3625 10.2855 22 11.0681 22 12C22 12.9319 21.3625 13.7145 20.5 13.9365V20.1036C20.5 20.4505 20.1552 20.692 19.8292 20.5735L15.1816 18.8838C14.31 18.5001 13.4052 18.1843 12.5537 17.9277L10.5 17.1816V6.81738L12.5537 6.07129C13.4053 5.81474 14.31 5.49895 15.1816 5.11523L19.8292 3.42554C20.1552 3.30698 20.5 3.54848 20.5 3.89545V10.0635Z" fill="#1B1B1B" style="fill:#1B1B1B;fill:color(display-p3 0.1059 0.1059 0.1059);fill-opacity:1;"/>
</svg>
