<svg width="24" height="24" viewBox="0 0 24 24" fill="none" xmlns="http://www.w3.org/2000/svg">
<path fill-rule="evenodd" clip-rule="evenodd" d="M12 1C14.7614 1 17 3.23858 17 6H21V22H3V6H7C7 3.23858 9.23858 1 12 1ZM15.7617 10.7324C14.7776 9.75608 13.1824 9.75612 12.1982 10.7324L11.999 10.9287L11.8018 10.7324C10.8176 9.75612 9.22242 9.75608 8.23828 10.7324C7.25416 11.7088 7.25423 13.2912 8.23828 14.2676L11.7891 17.79C11.906 17.9061 12.094 17.906 12.2109 17.79L15.7617 14.2676C16.7458 13.2912 16.7458 11.7088 15.7617 10.7324ZM12 3C10.3431 3 9 4.34315 9 6H15C15 4.34315 13.6569 3 12 3Z" fill="#1B1B1B" style="fill:#1B1B1B;fill:color(display-p3 0.1059 0.1059 0.1059);fill-opacity:1;"/>
</svg>
