<svg width="24" height="24" viewBox="0 0 24 24" fill="none" xmlns="http://www.w3.org/2000/svg">
<path d="M21.0049 21.0029C21.0049 21.0375 21.0034 21.0718 21 21.1055V22H20.0664C20.046 22.0012 20.0256 22.0029 20.0049 22.0029H4.00488C3.9842 22.0029 3.96373 22.0012 3.94336 22H3V20H3.00488V8.72656C4.86499 10.2892 7.1376 11.3769 9.63574 11.8027C9.96946 12.7909 10.9041 13.5029 12.0049 13.5029C13.1057 13.5029 14.0403 12.7909 14.374 11.8027C16.8722 11.3769 19.1448 10.2892 21.0049 8.72656V21.0029Z" fill="#1B1B1B" style="fill:#1B1B1B;fill:color(display-p3 0.1059 0.1059 0.1059);fill-opacity:1;"/>
<path d="M21 2.90039C21.0034 2.93405 21.0049 2.96836 21.0049 3.00293V5.94043C19.2657 7.91085 16.8891 9.30564 14.1982 9.80273C13.7735 9.02812 12.9506 8.50293 12.0049 8.50293C11.0592 8.50294 10.2362 9.02811 9.81152 9.80273C7.12061 9.30564 4.74405 7.91085 3.00488 5.94043V4H3V2H21V2.90039Z" fill="#1B1B1B" style="fill:#1B1B1B;fill:color(display-p3 0.1059 0.1059 0.1059);fill-opacity:1;"/>
</svg>
