<svg width="24" height="24" viewBox="0 0 24 24" fill="none" xmlns="http://www.w3.org/2000/svg">
<path d="M6 18.5C7.10457 18.5 8 19.3954 8 20.5C8 21.6046 7.10457 22.5 6 22.5C4.89543 22.5 4 21.6046 4 20.5C4 19.3954 4.89543 18.5 6 18.5Z" fill="#1B1B1B" style="fill:#1B1B1B;fill:color(display-p3 0.1059 0.1059 0.1059);fill-opacity:1;"/>
<path d="M18 18.5C19.1046 18.5 20 19.3954 20 20.5C20 21.6046 19.1046 22.5 18 22.5C16.8954 22.5 16 21.6046 16 20.5C16 19.3954 16.8954 18.5 18 18.5Z" fill="#1B1B1B" style="fill:#1B1B1B;fill:color(display-p3 0.1059 0.1059 0.1059);fill-opacity:1;"/>
<path d="M6 4.5H8.96777C9.21668 4.50002 9.35688 4.78613 9.20508 4.9834L8.03809 6.5H6V14.5H18.4385L20.4385 6.5H18V4.5H21.7188C22.271 4.5 22.7188 4.94772 22.7188 5.5C22.7188 5.58164 22.7093 5.66298 22.6895 5.74219L20 16.5H4V3.5H2V1.5H6V4.5Z" fill="#1B1B1B" style="fill:#1B1B1B;fill:color(display-p3 0.1059 0.1059 0.1059);fill-opacity:1;"/>
<path d="M13.6533 2.11816C13.8279 1.89101 14.1914 2.01427 14.1914 2.30078V5.92285H16.582C16.8308 5.92285 16.9716 6.208 16.8203 6.40527L12.7295 11.7236C12.5549 11.9506 12.1916 11.8273 12.1914 11.541V7.92285H9.80078C9.55208 7.92285 9.41129 7.63772 9.5625 7.44043L13.6533 2.11816Z" fill="#1B1B1B" style="fill:#1B1B1B;fill:color(display-p3 0.1059 0.1059 0.1059);fill-opacity:1;"/>
</svg>
