<svg width="24" height="24" viewBox="0 0 24 24" fill="none" xmlns="http://www.w3.org/2000/svg">
<path d="M8 11C8 12.1046 8.89543 13 10 13C11.1046 13 12 12.1046 12 11V10H14V11C14 13.2091 12.2091 15 10 15C7.79086 15 6 13.2091 6 11V10H8V11Z" fill="#1B1B1B" style="fill:#1B1B1B;fill:color(display-p3 0.1059 0.1059 0.1059);fill-opacity:1;"/>
<path fill-rule="evenodd" clip-rule="evenodd" d="M21 2V18H17V22H3L3.00293 8H3V6H7V2H21ZM5 20H15V8H5.00195L5 20ZM9 6H17V16H19V4H9V6Z" fill="#1B1B1B" style="fill:#1B1B1B;fill:color(display-p3 0.1059 0.1059 0.1059);fill-opacity:1;"/>
</svg>
