<svg width="24" height="24" viewBox="0 0 24 24" fill="none" xmlns="http://www.w3.org/2000/svg">
<path d="M16.7061 17.7324L15.1748 18.001C15.4963 18.8941 16.2354 19.6223 17.2217 19.8867C18.2513 20.1625 19.2974 19.8641 20.0283 19.1924L21.3164 20.7275C20.1018 21.8032 18.3883 22.2695 16.7041 21.8184C15.0517 21.3754 13.8156 20.1535 13.2842 18.6543L13.1875 18.3516C13.143 18.1929 13.1054 18.0299 13.0762 17.8643C12.8477 16.5674 13.1412 15.2982 13.8057 14.2744L16.7061 17.7324Z" fill="#1B1B1B" style="fill:#1B1B1B;fill:color(display-p3 0.1059 0.1059 0.1059);fill-opacity:1;"/>
<path fill-rule="evenodd" clip-rule="evenodd" d="M23 13.6826C22.488 12.9125 21.8027 12.2681 21 11.8037V5H10V12H8V8.00098L5.04492 8.00195L3 11.1836V16H4.33691C4.89865 14.8175 6.10382 14 7.5 14C8.89618 14 10.1013 14.8175 10.6631 16H12.085C12.0304 16.3253 12 16.6592 12 17C12 17.3408 12.0304 17.6747 12.085 18H10.9639C10.7212 19.6961 9.2632 21 7.5 21C5.73675 21 4.27775 19.6962 4.03516 18L1 18.001V10.8906C1 10.6988 1.05544 10.5109 1.15918 10.3496L3.9541 6.00293H8V3H23V13.6826ZM7.5 16C6.67157 16 6 16.6716 6 17.5C6 18.3284 6.67157 19 7.5 19C8.32843 19 9 18.3284 9 17.5C9 16.6716 8.32843 16 7.5 16Z" fill="#1B1B1B" style="fill:#1B1B1B;fill:color(display-p3 0.1059 0.1059 0.1059);fill-opacity:1;"/>
<path d="M14.6816 13.2539C15.8961 12.1785 17.6099 11.7121 19.2939 12.1631C20.9463 12.6059 22.1824 13.8281 22.7139 15.3271L22.8105 15.6299C22.855 15.7885 22.8926 15.9516 22.9219 16.1172C23.1504 17.4141 22.8569 18.6832 22.1924 19.707L19.292 16.249L20.8232 15.9805C20.5017 15.0874 19.7626 14.3591 18.7764 14.0947C17.747 13.8192 16.7015 14.1177 15.9707 14.7891L14.6816 13.2539Z" fill="#1B1B1B" style="fill:#1B1B1B;fill:color(display-p3 0.1059 0.1059 0.1059);fill-opacity:1;"/>
</svg>
