<svg width="24" height="24" viewBox="0 0 24 24" fill="none" xmlns="http://www.w3.org/2000/svg">
<path d="M11 16.5C7.68629 16.5 5 19.1863 5 22.5H3C3 18.0817 6.58172 14.5 11 14.5V16.5Z" fill="#1B1B1B" style="fill:#1B1B1B;fill:color(display-p3 0.1059 0.1059 0.1059);fill-opacity:1;"/>
<path fill-rule="evenodd" clip-rule="evenodd" d="M21 22.5H13V14.5H21V22.5ZM15 20.5H19V16.5H15V20.5Z" fill="#1B1B1B" style="fill:#1B1B1B;fill:color(display-p3 0.1059 0.1059 0.1059);fill-opacity:1;"/>
<path fill-rule="evenodd" clip-rule="evenodd" d="M11 1.5C14.315 1.5 17 4.185 17 7.5C17 10.815 14.315 13.5 11 13.5C7.685 13.5 5 10.815 5 7.5C5 4.185 7.685 1.5 11 1.5ZM11 3.5C8.79 3.5 7 5.29 7 7.5C7 9.71 8.79 11.5 11 11.5C13.21 11.5 15 9.71 15 7.5C15 5.29 13.21 3.5 11 3.5Z" fill="#1B1B1B" style="fill:#1B1B1B;fill:color(display-p3 0.1059 0.1059 0.1059);fill-opacity:1;"/>
<rect x="6" y="5" width="13" height="2" fill="#1B1B1B" style="fill:#1B1B1B;fill:color(display-p3 0.1059 0.1059 0.1059);fill-opacity:1;"/>
</svg>
