<svg width="24" height="24" viewBox="0 0 24 24" fill="none" xmlns="http://www.w3.org/2000/svg">
<path fill-rule="evenodd" clip-rule="evenodd" d="M20.0254 2H21V2.89648C21.0034 2.93019 21.0049 2.96442 21.0049 2.99902V16.999L12.5596 22.6289C12.2237 22.8528 11.7861 22.8528 11.4502 22.6289L3.00488 16.999V4H3V2H3.98438C3.9912 1.99986 3.99803 1.99902 4.00488 1.99902H20.0049C20.0117 1.99902 20.0186 1.99986 20.0254 2ZM8 11.5C7.73299 11.5001 7.59878 11.8227 7.78711 12.0117L10.7637 14.9883C10.9527 15.1767 11.2754 15.0424 11.2754 14.7754V13.5H16V11.5H8ZM13.0234 6.01172C12.8344 5.82337 12.5117 5.95754 12.5117 6.22461V7.5H8V9.5H15.7871C16.0542 9.5 16.1884 9.17733 16 8.98828L13.0234 6.01172Z" fill="#1B1B1B" style="fill:#1B1B1B;fill:color(display-p3 0.1059 0.1059 0.1059);fill-opacity:1;"/>
</svg>
