<svg width="24" height="24" viewBox="0 0 24 24" fill="none" xmlns="http://www.w3.org/2000/svg">
<path d="M20.9999 21.0004H2.99994V19.0004H20.9999V21.0004Z" fill="#1B1B1B" style="fill:#1B1B1B;fill:color(display-p3 0.1059 0.1059 0.1059);fill-opacity:1;"/>
<path fill-rule="evenodd" clip-rule="evenodd" d="M11.7773 2.24846C11.8965 2.11609 12.1034 2.11606 12.2226 2.24846L16.4999 7.00041L21.5146 4.26506C21.7234 4.15114 21.976 4.31404 21.9579 4.55119L20.9999 17.0004H2.99994L2.04193 4.55119C2.02388 4.31404 2.27643 4.15114 2.48529 4.26506L7.49994 7.00041L11.7773 2.24846ZM8.08783 9.33635C7.99487 9.43959 7.84358 9.46539 7.72162 9.39885L4.27631 7.51994L4.8515 15.0004H19.1484L19.7226 7.51994L16.2783 9.39885C16.1563 9.46543 16.005 9.43966 15.912 9.33635L11.9999 4.98967L8.08783 9.33635Z" fill="#1B1B1B" style="fill:#1B1B1B;fill:color(display-p3 0.1059 0.1059 0.1059);fill-opacity:1;"/>
</svg>
