<svg width="24" height="24" viewBox="0 0 24 24" fill="none" xmlns="http://www.w3.org/2000/svg">
<path d="M14.5 20.5C14.5 21.8807 13.3807 23 12 23C10.6193 23 9.5 21.8807 9.5 20.5H14.5Z" fill="#1B1B1B" style="fill:#1B1B1B;fill:color(display-p3 0.1059 0.1059 0.1059);fill-opacity:1;"/>
<path d="M16.4854 9.41406L11.5352 14.3643L8 10.8281L9.41406 9.41406L11.5352 11.5352L15.0713 8L16.4854 9.41406Z" fill="#1B1B1B" style="fill:#1B1B1B;fill:color(display-p3 0.1059 0.1059 0.1059);fill-opacity:1;"/>
<path fill-rule="evenodd" clip-rule="evenodd" d="M12 1.5C16.4183 1.5 20 5.08172 20 9.5V17.5H21.5V19.5H2.5V17.5H4V9.5C4 5.08172 7.58172 1.5 12 1.5ZM12 3.5C8.68629 3.5 6 6.18629 6 9.5V17.5H18V9.5C18 6.18629 15.3137 3.5 12 3.5Z" fill="#1B1B1B" style="fill:#1B1B1B;fill:color(display-p3 0.1059 0.1059 0.1059);fill-opacity:1;"/>
</svg>
