<svg width="24" height="24" viewBox="0 0 24 24" fill="none" xmlns="http://www.w3.org/2000/svg">
<path fill-rule="evenodd" clip-rule="evenodd" d="M12.6836 2.66823C12.8973 2.49337 13.2118 2.52482 13.3867 2.73854C13.4598 2.82785 13.5 2.93958 13.5 3.05495V20.9446C13.4999 21.2207 13.276 21.4446 13 21.4446C12.8846 21.4446 12.7729 21.4044 12.6836 21.3313L6.38867 16.9993L1.5 17.0003V7.00026H2.4834C2.48892 7.00017 2.49445 6.99928 2.5 6.99928H6.38867L12.6836 2.66823ZM7.10254 8.99928H3.5V14.9993H7.10254L11.5 17.7796V6.21999L7.10254 8.99928Z" fill="#1B1B1B" style="fill:#1B1B1B;fill:color(display-p3 0.1059 0.1059 0.1059);fill-opacity:1;"/>
<path d="M19.2617 3.73756C21.5534 5.75345 23 8.70821 23 12.0003C22.9999 15.2922 21.5534 18.2461 19.2617 20.262L17.8447 18.844C19.7758 17.1934 20.9999 14.7398 21 12.0003C21 9.26047 19.776 6.80625 17.8447 5.15553L19.2617 3.73756Z" fill="#1B1B1B" style="fill:#1B1B1B;fill:color(display-p3 0.1059 0.1059 0.1059);fill-opacity:1;"/>
<path d="M16.7129 7.28639C18.1056 8.38514 19 10.0886 19 12.0003C18.9999 13.9118 18.1055 15.6145 16.7129 16.7132L15.2842 15.2844C16.3212 14.5618 16.9999 13.3602 17 12.0003C17 10.6403 16.3212 9.4388 15.2842 8.71608L16.7129 7.28639Z" fill="#1B1B1B" style="fill:#1B1B1B;fill:color(display-p3 0.1059 0.1059 0.1059);fill-opacity:1;"/>
</svg>
