<svg width="24" height="24" viewBox="0 0 24 24" fill="none" xmlns="http://www.w3.org/2000/svg">
<path d="M12.0242 17.0609C9.22245 18.0265 5.99161 17.3922 3.75511 15.1557C1.00829 12.4089 0.678312 8.163 2.76172 5.05382C2.92911 4.80402 3.28134 4.78247 3.49397 4.9951L6.76583 8.26696L8.18005 6.85275L4.90818 3.58088C4.69556 3.36826 4.71711 3.01602 4.96691 2.84863C8.07609 0.765226 12.322 1.0952 15.0688 3.84202C17.3053 6.07852 17.9396 9.30937 16.974 12.1112L22.8981 18.0353L17.9483 22.985L12.0242 17.0609ZM11.0085 6.85275L6.76583 11.0954L3.61769 7.94724C3.08314 9.94849 3.59996 12.1722 5.16932 13.7415C6.84413 15.4163 9.26552 15.8962 11.3724 15.1702L12.5546 14.7628L17.9483 20.1566L20.0697 18.0353L14.6759 12.6415L15.0833 11.4593C15.8093 9.35244 15.3294 6.93104 13.6546 5.25623C12.0852 3.68687 9.86158 3.17006 7.86033 3.7046L11.0085 6.85275Z" fill="#1B1B1B" style="fill:#1B1B1B;fill:color(display-p3 0.1059 0.1059 0.1059);fill-opacity:1;"/>
</svg>
