<svg width="24" height="24" viewBox="0 0 24 24" fill="none" xmlns="http://www.w3.org/2000/svg">
<path d="M16.5 21.7012C16.5 21.978 16.1571 22.1074 15.9746 21.8994L13.4355 18.9971C13.2661 18.8031 13.4035 18.5 13.6611 18.5H15V15.5H16.5V21.7012Z" fill="#1B1B1B" style="fill:#1B1B1B;fill:color(display-p3 0.1059 0.1059 0.1059);fill-opacity:1;"/>
<path d="M18 15.7988C18 15.522 18.3429 15.3926 18.5254 15.6006L21.0645 18.5029C21.2339 18.6969 21.0965 19 20.8389 19H19.5V22H18V15.7988Z" fill="#1B1B1B" style="fill:#1B1B1B;fill:color(display-p3 0.1059 0.1059 0.1059);fill-opacity:1;"/>
<path d="M12 2.5C17.2467 2.5 21.5 6.75329 21.5 12C21.5 12.1171 21.4965 12.2336 21.4922 12.3496C21.4908 12.3865 21.4891 12.4232 21.4873 12.46C21.4831 12.5462 21.4782 12.6321 21.4717 12.7178C21.4687 12.7576 21.4645 12.7972 21.4609 12.8369C21.4546 12.9081 21.4483 12.9791 21.4404 13.0498C21.4349 13.0994 21.4291 13.1489 21.4229 13.1982C21.4142 13.2662 21.4046 13.3339 21.3945 13.4014C21.3897 13.4342 21.3861 13.4672 21.3809 13.5C21.3265 13.8396 21.2539 14.1733 21.165 14.5H19.0713C19.1999 14.1361 19.3 13.7591 19.3721 13.3721C19.4544 12.9271 19.5 12.4688 19.5 12C19.5 7.85786 16.1421 4.5 12 4.5C7.85786 4.5 4.5 7.85786 4.5 12C4.5 12.2528 4.51268 12.5027 4.53711 12.749C4.55712 12.9508 4.58639 13.15 4.62207 13.3467C4.95326 15.173 5.94592 16.7674 7.34277 17.876C8.50008 18.7938 9.93398 19.3783 11.5 19.4814C11.6653 19.4923 11.8319 19.5 12 19.5C12.1681 19.5 12.3347 19.4923 12.5 19.4814V21.4863C12.3344 21.4949 12.1677 21.5 12 21.5C11.4102 21.5 10.8335 21.4427 10.2734 21.3398C10.2171 21.3295 10.1605 21.3209 10.1045 21.3096C9.67143 21.2219 9.24935 21.1044 8.83984 20.96C8.82683 20.9554 8.81377 20.9509 8.80078 20.9463C8.69795 20.9095 8.59628 20.8703 8.49512 20.8301C8.44986 20.8121 8.40429 20.795 8.35938 20.7764C8.26123 20.7356 8.16481 20.6914 8.06836 20.6475C8.03001 20.63 7.9912 20.6137 7.95312 20.5957C7.86254 20.553 7.77356 20.5074 7.68457 20.4619C7.6367 20.4375 7.58841 20.4139 7.54102 20.3887C7.46595 20.3487 7.3922 20.3066 7.31836 20.2646C7.25732 20.23 7.19593 20.1961 7.13574 20.1602C7.06224 20.1162 6.99016 20.0702 6.91797 20.0244C6.86861 19.9931 6.81924 19.9619 6.77051 19.9297C6.69678 19.881 6.62403 19.831 6.55176 19.7803C6.49479 19.7403 6.43788 19.7004 6.38184 19.6592C6.32414 19.6168 6.26763 19.5729 6.21094 19.5293C6.15266 19.4844 6.09431 19.4397 6.03711 19.3936C5.96892 19.3385 5.90158 19.2825 5.83496 19.2256C5.79037 19.1875 5.74602 19.1492 5.70215 19.1104C5.63058 19.0469 5.56083 18.9816 5.49121 18.916C5.45666 18.8835 5.42175 18.8514 5.3877 18.8184C5.31217 18.7451 5.23811 18.6704 5.16504 18.5947C5.13353 18.5621 5.10233 18.5292 5.07129 18.4961C5.00886 18.4295 4.94723 18.3623 4.88672 18.2939C4.84158 18.243 4.79698 18.1916 4.75293 18.1396C4.70209 18.0797 4.65191 18.0192 4.60254 17.958C4.55422 17.8981 4.50684 17.8375 4.45996 17.7764C4.41665 17.7199 4.3741 17.6629 4.33203 17.6055C4.29025 17.5484 4.24952 17.4906 4.20898 17.4326C4.16194 17.3653 4.11466 17.2981 4.06934 17.2295C4.02867 17.168 3.98945 17.1055 3.9502 17.043C3.9088 16.977 3.86793 16.9108 3.82812 16.8438C3.79394 16.7862 3.76053 16.7282 3.72754 16.6699C3.68889 16.6016 3.65028 16.5332 3.61328 16.4639C3.57391 16.3901 3.53649 16.3152 3.49902 16.2402C3.46676 16.1757 3.43414 16.1113 3.40332 16.0459C3.37426 15.9843 3.3471 15.9217 3.31934 15.8594C3.28444 15.781 3.24962 15.7025 3.2168 15.623C3.19238 15.5639 3.16974 15.5041 3.14648 15.4443C3.11605 15.3662 3.08505 15.2881 3.05664 15.209C3.0317 15.1395 3.00871 15.0693 2.98535 14.999C2.9616 14.9276 2.93713 14.8563 2.91504 14.7842C2.8843 14.6838 2.85657 14.5823 2.8291 14.4805C2.81636 14.4332 2.80207 14.3864 2.79004 14.3389C2.76314 14.2326 2.74008 14.1252 2.7168 14.0176C2.70792 13.9765 2.6978 13.9358 2.68945 13.8945C2.66304 13.764 2.64015 13.6324 2.61914 13.5C2.61521 13.4752 2.61018 13.4506 2.60645 13.4258C2.59174 13.3281 2.58104 13.2295 2.56934 13.1309C2.56227 13.0713 2.55283 13.012 2.54688 12.9521C2.51571 12.639 2.5 12.3214 2.5 12C2.5 6.75329 6.75329 2.5 12 2.5Z" fill="#1B1B1B" style="fill:#1B1B1B;fill:color(display-p3 0.1059 0.1059 0.1059);fill-opacity:1;"/>
<path d="M13 12.4141L9.70703 15.707L8.29297 14.293L11 11.5859V6.5H13V12.4141Z" fill="#1B1B1B" style="fill:#1B1B1B;fill:color(display-p3 0.1059 0.1059 0.1059);fill-opacity:1;"/>
</svg>
