<svg width="24" height="24" viewBox="0 0 24 24" fill="none" xmlns="http://www.w3.org/2000/svg">
<path d="M6 18.5C7.10457 18.5 8 19.3954 8 20.5C8 21.6046 7.10457 22.5 6 22.5C4.89543 22.5 4 21.6046 4 20.5C4 19.3954 4.89543 18.5 6 18.5Z" fill="#1B1B1B" style="fill:#1B1B1B;fill:color(display-p3 0.1059 0.1059 0.1059);fill-opacity:1;"/>
<path d="M18 18.5C19.1046 18.5 20 19.3954 20 20.5C20 21.6046 19.1046 22.5 18 22.5C16.8954 22.5 16 21.6046 16 20.5C16 19.3954 16.8954 18.5 18 18.5Z" fill="#1B1B1B" style="fill:#1B1B1B;fill:color(display-p3 0.1059 0.1059 0.1059);fill-opacity:1;"/>
<path d="M6 1.5V8.5H8V4.5H21.7188C21.7878 4.5 21.8557 4.50716 21.9209 4.52051C21.9534 4.52718 21.9854 4.53519 22.0166 4.54492C22.1419 4.5839 22.2567 4.64693 22.3555 4.72852C22.4541 4.81004 22.5371 4.91013 22.5986 5.02344C22.6448 5.10854 22.6793 5.20108 22.6992 5.29883C22.7058 5.33113 22.7105 5.36411 22.7139 5.39746C22.7173 5.43118 22.7188 5.46538 22.7188 5.5C22.7188 5.58164 22.7093 5.66298 22.6895 5.74219L20 16.5H4V3.5H2V1.5H6Z" fill="#1B1B1B" style="fill:#1B1B1B;fill:color(display-p3 0.1059 0.1059 0.1059);fill-opacity:1;"/>
</svg>
