<svg width="24" height="24" viewBox="0 0 24 24" fill="none" xmlns="http://www.w3.org/2000/svg">
<path d="M17.8643 9.13574L11.5 15.5L7.25781 11.2578L8.67188 9.84277L11.499 12.6709L16.4502 7.72168L17.8643 9.13574Z" fill="#1B1B1B" style="fill:#1B1B1B;fill:color(display-p3 0.1059 0.1059 0.1059);fill-opacity:1;"/>
<path fill-rule="evenodd" clip-rule="evenodd" d="M12 1L21 3V13.7891C20.9999 15.7951 19.9973 17.6685 18.3281 18.7812L12.2774 22.8151C12.1094 22.9271 11.8906 22.9271 11.7226 22.8151L5.67188 18.7812C4.00273 17.6685 3.00005 15.7951 3 13.7891V3L12 1ZM5 4.60449V13.7891C5.00005 15.1264 5.66849 16.3753 6.78125 17.1172L12 20.5967L17.2188 17.1172C18.3315 16.3753 18.9999 15.1264 19 13.7891V4.60449L12 3.04883L5 4.60449Z" fill="#1B1B1B" style="fill:#1B1B1B;fill:color(display-p3 0.1059 0.1059 0.1059);fill-opacity:1;"/>
</svg>
