<svg width="24" height="24" viewBox="0 0 24 24" fill="none" xmlns="http://www.w3.org/2000/svg">
<path fill-rule="evenodd" clip-rule="evenodd" d="M12 4C14.125 4 16.0785 4.73614 17.6182 5.96777L19.0713 4.51465L20.4854 5.92871L19.0322 7.38184C20.2638 8.92152 21 10.875 21 13C21 17.9706 16.9706 22 12 22C7.02944 22 3 17.9706 3 13C3 10.875 3.73614 8.92152 4.96777 7.38184L3.51465 5.92871L4.92871 4.51465L6.38184 5.96777C7.92152 4.73614 9.87499 4 12 4ZM11.5 13L9.41406 10.8994L8 12.3135L11.5 15.8291L16.4492 10.8789L15.0352 9.46484L11.5 13Z" fill="#1B1B1B" style="fill:#1B1B1B;fill:color(display-p3 0.1059 0.1059 0.1059);fill-opacity:1;"/>
<path d="M16 3H8V1H16V3Z" fill="#1B1B1B" style="fill:#1B1B1B;fill:color(display-p3 0.1059 0.1059 0.1059);fill-opacity:1;"/>
</svg>
