<svg width="25" height="25" viewBox="0 0 25 25" fill="none" xmlns="http://www.w3.org/2000/svg">
<g opacity="0.3">
<rect x="0.0854004" y="0.0853394" width="23.9" height="23.9" stroke="#8F98B1" style="stroke:#8F98B1;stroke:color(display-p3 0.5627 0.5957 0.6956);stroke-opacity:1;" stroke-width="0.1"/>
<path d="M12.0354 22.0353C17.5582 22.0353 22.0354 17.5582 22.0354 12.0353C22.0354 6.51249 17.5582 2.03534 12.0354 2.03534C6.51255 2.03534 2.0354 6.51249 2.0354 12.0353C2.0354 17.5582 6.51255 22.0353 12.0354 22.0353Z" stroke="#FF9838" style="stroke:#FF9838;stroke:color(display-p3 1.0000 0.5961 0.2196);stroke-opacity:1;" stroke-width="0.1"/>
<path d="M12.0352 17.9853C15.3213 17.9853 17.9852 15.3214 17.9852 12.0353C17.9852 8.74923 15.3213 6.08533 12.0352 6.08533C8.74911 6.08533 6.08521 8.74923 6.08521 12.0353C6.08521 15.3214 8.74911 17.9853 12.0352 17.9853Z" stroke="#FF9838" style="stroke:#FF9838;stroke:color(display-p3 1.0000 0.5961 0.2196);stroke-opacity:1;" stroke-width="0.1"/>
<path d="M21.0354 3.03534H3.0354V21.0353H21.0354V3.03534Z" stroke="#ED5353" style="stroke:#ED5353;stroke:color(display-p3 0.9294 0.3255 0.3255);stroke-opacity:1;" stroke-width="0.1"/>
<path d="M20.0354 2.03534H4.0354V22.0353H20.0354V2.03534Z" stroke="#32C275" style="stroke:#32C275;stroke:color(display-p3 0.1961 0.7608 0.4588);stroke-opacity:1;" stroke-width="0.1"/>
<path fill-rule="evenodd" clip-rule="evenodd" d="M22.0354 20.0353L2.0354 20.0353L2.0354 4.03534L22.0354 4.03534L22.0354 20.0353Z" stroke="#3858E6" style="stroke:#3858E6;stroke:color(display-p3 0.2196 0.3451 0.9020);stroke-opacity:1;" stroke-width="0.1"/>
<path d="M0.0354004 0.0353394L24.0354 24.0353" stroke="#979797" style="stroke:#979797;stroke:color(display-p3 0.5922 0.5922 0.5922);stroke-opacity:1;" stroke-width="0.1"/>
<path d="M24.0354 0.0353394L0.0354004 24.0353" stroke="#979797" style="stroke:#979797;stroke:color(display-p3 0.5922 0.5922 0.5922);stroke-opacity:1;" stroke-width="0.1"/>
</g>
<path fill-rule="evenodd" clip-rule="evenodd" d="M22.7424 21.3322L21.3284 22.7463L18.3303 19.7482C16.5004 20.8797 14.3453 21.5353 12.0354 21.5353C6.26542 21.5353 1.44841 17.4626 0.298096 12.0353C0.842668 9.466 2.21119 7.20294 4.11157 5.52948L1.32837 2.74628L2.74243 1.33221L22.7424 21.3322ZM7.86353 9.28143C7.34102 10.0713 7.0354 11.0173 7.0354 12.0353C7.0354 14.7968 9.27398 17.0353 12.0354 17.0353C13.0534 17.0353 13.9987 16.729 14.7883 16.2062L13.3235 14.7414C12.9333 14.9283 12.4974 15.0353 12.0354 15.0353C10.3785 15.0353 9.0354 13.6922 9.0354 12.0353C9.0354 11.5731 9.14044 11.1359 9.32739 10.7453L7.86353 9.28143Z" fill="#1B1B1B" style="fill:#1B1B1B;fill:color(display-p3 0.1059 0.1059 0.1059);fill-opacity:1;"/>
<path d="M12.0354 2.53534C17.8053 2.53534 22.6213 6.60815 23.7717 12.0353C23.3704 13.9287 22.5206 15.6554 21.342 17.1037L16.9836 12.7453C17.0166 12.5133 17.0354 12.2764 17.0354 12.0353C17.0354 9.27392 14.7968 7.03534 12.0354 7.03534C11.794 7.03534 11.5567 7.05306 11.3245 7.08612L7.61548 3.37714C8.98335 2.83469 10.4743 2.53534 12.0354 2.53534Z" fill="#1B1B1B" style="fill:#1B1B1B;fill:color(display-p3 0.1059 0.1059 0.1059);fill-opacity:1;"/>
</svg>
