<svg width="24" height="24" viewBox="0 0 24 24" fill="none" xmlns="http://www.w3.org/2000/svg">
<path d="M7.50004 20.5H4.50004V21.8389C4.50004 22.0966 4.19695 22.234 4.00297 22.0645L1.10062 19.5254C0.892709 19.3429 1.02203 19 1.29887 19H7.50004V20.5Z" fill="#1B1B1B" style="fill:#1B1B1B;fill:color(display-p3 0.1059 0.1059 0.1059);fill-opacity:1;"/>
<path fill-rule="evenodd" clip-rule="evenodd" d="M17 9.25098L22.2354 5.97949C22.5684 5.77144 23 6.01063 23 6.40332V18.5986C22.9998 18.9664 22.6205 19.2 22.2989 19.0566L22.2354 19.0225L17 15.75V20.5H9.50004V18.5H15V5.5H3.00004V14H1.00004V3.5H17V9.25098ZM17 11.6094V13.3916L21 15.8926V9.1084L17 11.6094Z" fill="#1B1B1B" style="fill:#1B1B1B;fill:color(display-p3 0.1059 0.1059 0.1059);fill-opacity:1;"/>
<path d="M4.00004 14.6611C4.00004 14.4034 4.30411 14.2658 4.49808 14.4355L7.39945 16.9746C7.60747 17.1571 7.47808 17.5 7.20121 17.5H1.00004V16H4.00004V14.6611Z" fill="#1B1B1B" style="fill:#1B1B1B;fill:color(display-p3 0.1059 0.1059 0.1059);fill-opacity:1;"/>
<path d="M7.00004 9.0791C7.00004 8.84301 7.26022 8.69938 7.46 8.8252L12.0967 11.7451C12.2836 11.8628 12.2836 12.1353 12.0967 12.2529L7.46 15.1729C7.26022 15.2987 7.00004 15.155 7.00004 14.9189V9.0791Z" fill="#1B1B1B" style="fill:#1B1B1B;fill:color(display-p3 0.1059 0.1059 0.1059);fill-opacity:1;"/>
</svg>
