<svg width="24" height="24" viewBox="0 0 24 24" fill="none" xmlns="http://www.w3.org/2000/svg">
<path d="M11 22.5H3C3 18.0817 6.58172 14.5 11 14.5V22.5Z" fill="#1B1B1B" style="fill:#1B1B1B;fill:color(display-p3 0.1059 0.1059 0.1059);fill-opacity:1;"/>
<path fill-rule="evenodd" clip-rule="evenodd" d="M21 22.5H13V14.5H21V22.5ZM15 17.5H19V16H15V17.5Z" fill="#1B1B1B" style="fill:#1B1B1B;fill:color(display-p3 0.1059 0.1059 0.1059);fill-opacity:1;"/>
<path fill-rule="evenodd" clip-rule="evenodd" d="M11 1.5C13.4223 1.5 15.5063 2.93451 16.4541 5H19V7H16.9775C16.9911 7.16491 17 7.33156 17 7.5C17 10.815 14.315 13.5 11 13.5C7.685 13.5 5 10.815 5 7.5C5 4.185 7.685 1.5 11 1.5ZM7.03223 7C7.01181 7.16384 7 7.33061 7 7.5C7 9.71 8.79 11.5 11 11.5C13.21 11.5 15 9.71 15 7.5C15 7.33061 14.9882 7.16384 14.9678 7H7.03223Z" fill="#1B1B1B" style="fill:#1B1B1B;fill:color(display-p3 0.1059 0.1059 0.1059);fill-opacity:1;"/>
</svg>
