<svg width="24" height="24" viewBox="0 0 24 24" fill="none" xmlns="http://www.w3.org/2000/svg">
<path d="M8.50004 21H5.50004V22.3389C5.50004 22.5966 5.19695 22.734 5.00297 22.5645L2.10062 20.0254C1.89271 19.8429 2.02203 19.5 2.29887 19.5H8.50004V21Z" fill="#1B1B1B" style="fill:#1B1B1B;fill:color(display-p3 0.1059 0.1059 0.1059);fill-opacity:1;"/>
<path d="M22 21H10.5V19H20V17.8281L14 11.8281L10.4141 15.4141L9.00004 14L13.7879 9.21213C13.9051 9.09498 14.095 9.09497 14.2122 9.21213L20 15V5H4.00004V14.5H2.00004V3H22V21Z" fill="#1B1B1B" style="fill:#1B1B1B;fill:color(display-p3 0.1059 0.1059 0.1059);fill-opacity:1;"/>
<path d="M5.00004 15.1611C5.00004 14.9034 5.30411 14.7658 5.49808 14.9355L8.39945 17.4746C8.60747 17.6571 8.47808 18 8.20121 18H2.00004V16.5H5.00004V15.1611Z" fill="#1B1B1B" style="fill:#1B1B1B;fill:color(display-p3 0.1059 0.1059 0.1059);fill-opacity:1;"/>
<path d="M8.00004 7C9.10461 7 10 7.89543 10 9C10 10.1046 9.10461 11 8.00004 11C6.8955 11 6.00004 10.1046 6.00004 9C6.00004 7.89545 6.8955 7.00003 8.00004 7Z" fill="#1B1B1B" style="fill:#1B1B1B;fill:color(display-p3 0.1059 0.1059 0.1059);fill-opacity:1;"/>
</svg>
