<svg width="24" height="24" viewBox="0 0 24 24" fill="none" xmlns="http://www.w3.org/2000/svg">
<path d="M16.7061 17.7324L15.1748 18.001C15.4963 18.8941 16.2354 19.6223 17.2217 19.8867C18.2513 20.1625 19.2974 19.8641 20.0283 19.1924L21.3164 20.7275C20.1018 21.8032 18.3883 22.2695 16.7041 21.8184C15.0517 21.3754 13.8156 20.1535 13.2842 18.6543L13.1875 18.3516C13.143 18.1929 13.1054 18.0299 13.0762 17.8643C12.8477 16.5674 13.1412 15.2982 13.8057 14.2744L16.7061 17.7324Z" fill="#1B1B1B" style="fill:#1B1B1B;fill:color(display-p3 0.1059 0.1059 0.1059);fill-opacity:1;"/>
<path d="M8.5 8.5H15.5V3H21V11.8037C20.1174 11.293 19.093 11 18 11C14.6863 11 12 13.6863 12 17C12 18.5371 12.5788 19.9384 13.5293 21H3V3H8.5V8.5Z" fill="#1B1B1B" style="fill:#1B1B1B;fill:color(display-p3 0.1059 0.1059 0.1059);fill-opacity:1;"/>
<path d="M14.6816 13.2539C15.8961 12.1785 17.6099 11.7121 19.2939 12.1631C20.9463 12.6059 22.1824 13.8281 22.7139 15.3271L22.8105 15.6299C22.855 15.7885 22.8926 15.9516 22.9219 16.1172C23.1504 17.4141 22.8569 18.6832 22.1924 19.707L19.292 16.249L20.8232 15.9805C20.5017 15.0874 19.7626 14.3591 18.7764 14.0947C17.747 13.8192 16.7015 14.1177 15.9707 14.7891L14.6816 13.2539Z" fill="#1B1B1B" style="fill:#1B1B1B;fill:color(display-p3 0.1059 0.1059 0.1059);fill-opacity:1;"/>
<path d="M14 7H10V3H14V7Z" fill="#1B1B1B" style="fill:#1B1B1B;fill:color(display-p3 0.1059 0.1059 0.1059);fill-opacity:1;"/>
</svg>
