<svg width="24" height="24" viewBox="0 0 24 24" fill="none" xmlns="http://www.w3.org/2000/svg">
<path d="M20.7783 16.9141L15.1211 22.5713H13.707V21.1572L19.3643 15.5L20.7783 16.9141Z" fill="#1B1B1B" style="fill:#1B1B1B;fill:color(display-p3 0.1059 0.1059 0.1059);fill-opacity:1;"/>
<path d="M12 14.5C12.6906 14.5 13.3608 14.5875 14 14.752V16.8418C13.3744 16.6207 12.7013 16.5 12 16.5C8.68629 16.5 6 19.1863 6 22.5H4C4 18.0817 7.58172 14.5 12 14.5Z" fill="#1B1B1B" style="fill:#1B1B1B;fill:color(display-p3 0.1059 0.1059 0.1059);fill-opacity:1;"/>
<path fill-rule="evenodd" clip-rule="evenodd" d="M12 1.5C15.315 1.5 18 4.185 18 7.5C18 10.815 15.315 13.5 12 13.5C8.685 13.5 6 10.815 6 7.5C6 4.185 8.685 1.5 12 1.5ZM12 3.5C9.79 3.5 8 5.29 8 7.5C8 9.71 9.79 11.5 12 11.5C14.21 11.5 16 9.71 16 7.5C16 5.29 14.21 3.5 12 3.5Z" fill="#1B1B1B" style="fill:#1B1B1B;fill:color(display-p3 0.1059 0.1059 0.1059);fill-opacity:1;"/>
</svg>
