<svg width="24" height="24" viewBox="0 0 24 24" fill="none" xmlns="http://www.w3.org/2000/svg">
<path d="M12 2C17.5228 2 22 6.47715 22 12C22 17.5228 17.5228 22 12 22C6.47715 22 2 17.5228 2 12H4C4 16.4183 7.58172 20 12 20C16.4183 20 20 16.4183 20 12C20 7.58172 16.4183 4 12 4C9.53627 4 7.33274 5.11379 5.86523 6.86523L7.4873 8.48828C7.67631 8.67726 7.54267 9 7.27539 9H2V3.72461C2 3.45753 2.32267 3.32333 2.51172 3.51172L4.44629 5.44629C6.27975 3.3349 8.9841 2 12 2Z" fill="#1B1B1B" style="fill:#1B1B1B;fill:color(display-p3 0.1059 0.1059 0.1059);fill-opacity:1;"/>
<path d="M9.5 8.19141C9.5 7.96047 9.7502 7.81617 9.9502 7.93164L16.5498 11.7422C16.7498 11.8577 16.7498 12.1462 16.5498 12.2617L9.9502 16.0723C9.75022 16.1877 9.50006 16.0434 9.5 15.8125V8.19141Z" fill="#1B1B1B" style="fill:#1B1B1B;fill:color(display-p3 0.1059 0.1059 0.1059);fill-opacity:1;"/>
</svg>
