<svg width="24" height="24" viewBox="0 0 24 24" fill="none" xmlns="http://www.w3.org/2000/svg">
<path d="M6.38231 5.9681C7.92199 4.73647 9.87499 4 12 4C14.125 4 16.078 4.73647 17.6177 5.9681L19.0711 4.51472L20.4853 5.92893L19.0319 7.38231C20.2635 8.92199 21 10.875 21 13C21 17.9706 16.9706 22 12 22C7.02944 22 3 17.9706 3 13C3 10.875 3.73647 8.92199 4.9681 7.38231L3.51472 5.92893L4.92893 4.51472L6.38231 5.9681ZM12 20C15.866 20 19 16.866 19 13C19 9.13401 15.866 6 12 6C8.13401 6 5 9.13401 5 13C5 16.866 8.13401 20 12 20ZM13 12H15.3907C15.6396 12 15.7803 12.2856 15.6285 12.4829L11.5378 17.8009C11.3631 18.0279 11 17.9044 11 17.618V14H8.60898C8.36013 14 8.21947 13.7145 8.37113 13.5172L12.4621 8.19492C12.6368 7.96777 13 8.09124 13 8.37775V12ZM8 1H16V3H8V1Z" fill="#1B1B1B" style="fill:#1B1B1B;fill:color(display-p3 0.1059 0.1059 0.1059);fill-opacity:1;"/>
</svg>
