<svg width="24" height="24" viewBox="0 0 24 24" fill="none" xmlns="http://www.w3.org/2000/svg">
<path d="M6 18.5C7.10457 18.5 8 19.3954 8 20.5C8 21.6046 7.10457 22.5 6 22.5C4.89543 22.5 4 21.6046 4 20.5C4 19.3954 4.89543 18.5 6 18.5Z" fill="#1B1B1B" style="fill:#1B1B1B;fill:color(display-p3 0.1059 0.1059 0.1059);fill-opacity:1;"/>
<path d="M18 18.5C19.1046 18.5 20 19.3954 20 20.5C20 21.6046 19.1046 22.5 18 22.5C16.8954 22.5 16 21.6046 16 20.5C16 19.3954 16.8954 18.5 18 18.5Z" fill="#1B1B1B" style="fill:#1B1B1B;fill:color(display-p3 0.1059 0.1059 0.1059);fill-opacity:1;"/>
<path d="M14 9.5L16 9.49902V11.499L14 11.5V13.5H12V11.5H10V9.5H12V7.5H14V9.5Z" fill="#1B1B1B" style="fill:#1B1B1B;fill:color(display-p3 0.1059 0.1059 0.1059);fill-opacity:1;"/>
<path fill-rule="evenodd" clip-rule="evenodd" d="M6 4.5H21.7188C22.271 4.5 22.7188 4.94772 22.7188 5.5C22.7188 5.58164 22.7093 5.66298 22.6895 5.74219L20 16.5H4V3.5H2V1.5H6V4.5ZM6 14.5H18.4385L20.4385 6.5H6V14.5Z" fill="#1B1B1B" style="fill:#1B1B1B;fill:color(display-p3 0.1059 0.1059 0.1059);fill-opacity:1;"/>
</svg>
