<svg width="24" height="24" viewBox="0 0 24 24" fill="none" xmlns="http://www.w3.org/2000/svg">
<path fill-rule="evenodd" clip-rule="evenodd" d="M20.0254 2.00098H21V2.89746C21.0034 2.93116 21.0049 2.96539 21.0049 3V17L12.5596 22.6299C12.2237 22.8538 11.7861 22.8538 11.4502 22.6299L3.00488 17V4.00098H3V2.00098H3.98438C3.9912 2.00084 3.99803 2 4.00488 2H20.0049C20.0117 2 20.0186 2.00084 20.0254 2.00098ZM12.2686 6.16699C12.1584 5.94436 11.8405 5.94426 11.7305 6.16699L10.5303 8.59961L7.8457 8.98926C7.60007 9.02528 7.50211 9.32747 7.67969 9.50098L9.62207 11.3945L9.16406 14.0684C9.12228 14.3131 9.37873 14.4999 9.59863 14.3848L12 13.1221L14.4004 14.3848C14.6204 14.5004 14.8777 14.3133 14.8359 14.0684L14.3779 11.3945L16.3203 9.50098C16.4977 9.32737 16.3991 9.02507 16.1533 8.98926L13.4697 8.59961L12.2686 6.16699Z" fill="#1B1B1B" style="fill:#1B1B1B;fill:color(display-p3 0.1059 0.1059 0.1059);fill-opacity:1;"/>
</svg>
