<svg width="24" height="24" viewBox="0 0 24 24" fill="none" xmlns="http://www.w3.org/2000/svg">
<path fill-rule="evenodd" clip-rule="evenodd" d="M14.5049 2.00391C16.4379 2.00391 18.0049 3.57091 18.0049 5.50391C18.0049 6.03916 17.8848 6.54636 17.6699 7H22V7.90137C22.0034 7.93507 22.0049 7.9693 22.0049 8.00391V11C22.0049 9.99609 22.0034 10.9663 22 11H2V7H6.33984C6.12504 6.54636 6.00488 6.03916 6.00488 5.50391C6.00488 3.57091 7.57189 2.00391 9.50488 2.00391C10.4848 2.00391 11.3706 2.40672 12.0059 3.05566C12.6388 2.40665 13.5249 2.00391 14.5049 2.00391ZM9.50488 4.00391C8.67646 4.00391 8.00488 4.67548 8.00488 5.50391C8.00488 6.28357 8.59973 6.92436 9.36035 6.99707L9.42188 7H11.0049V5.50391C11.0049 4.72423 10.41 4.08346 9.64941 4.01074L9.50488 4.00391ZM14.3604 4.01074C13.6473 4.07891 13.0799 4.64632 13.0117 5.35938L13.0049 5.50391V7H14.5879L14.6494 6.99707C15.4101 6.92434 16.0049 6.28356 16.0049 5.50391C16.0049 4.72424 15.4101 4.08348 14.6494 4.01074L14.5049 4.00391L14.3604 4.01074Z" fill="#1B1B1B" style="fill:#1B1B1B;fill:color(display-p3 0.1059 0.1059 0.1059);fill-opacity:1;"/>
<path d="M4 13H20V22H4V13Z" fill="#1B1B1B" style="fill:#1B1B1B;fill:color(display-p3 0.1059 0.1059 0.1059);fill-opacity:1;"/>
</svg>
