<svg width="24" height="24" viewBox="0 0 24 24" fill="none" xmlns="http://www.w3.org/2000/svg">
<path d="M18.75 17.2275L18.624 17.416L17.624 18.916L16.376 18.084L17.25 16.7734V15H18.75V17.2275Z" fill="#1B1B1B" style="fill:#1B1B1B;fill:color(display-p3 0.1059 0.1059 0.1059);fill-opacity:1;"/>
<path fill-rule="evenodd" clip-rule="evenodd" d="M18 12C20.7614 12 23 14.2386 23 17C23 19.7614 20.7614 22 18 22C15.2386 22 13 19.7614 13 17C13 14.2386 15.2386 12 18 12ZM18 14C16.3431 14 15 15.3431 15 17C15 18.6569 16.3431 20 18 20C19.6569 20 21 18.6569 21 17C21 15.3431 19.6569 14 18 14Z" fill="#1B1B1B" style="fill:#1B1B1B;fill:color(display-p3 0.1059 0.1059 0.1059);fill-opacity:1;"/>
<path fill-rule="evenodd" clip-rule="evenodd" d="M12.6045 2.46973C12.6075 2.47203 12.6112 2.47422 12.6143 2.47656L20.6143 8.69824C20.6197 8.70249 20.6245 8.70756 20.6299 8.71191L21 9V11.8037C20.1174 11.293 19.093 11 18 11C14.6863 11 12 13.6863 12 17C12 18.5371 12.5788 19.9384 13.5293 21H3V9L3.36914 8.71191C3.37469 8.7074 3.38008 8.70265 3.38574 8.69824L11.3857 2.47656C11.3886 2.47438 11.3917 2.47188 11.3945 2.46973L12 2L12.6045 2.46973ZM7 18H10V15H7V18ZM7 13H10V10H7V13Z" fill="#1B1B1B" style="fill:#1B1B1B;fill:color(display-p3 0.1059 0.1059 0.1059);fill-opacity:1;"/>
</svg>
