<svg width="24" height="24" viewBox="0 0 24 24" fill="none" xmlns="http://www.w3.org/2000/svg">
<path d="M5 19H8V21H3V16H5V19Z" fill="#1B1B1B" style="fill:#1B1B1B;fill:color(display-p3 0.1059 0.1059 0.1059);fill-opacity:1;"/>
<path d="M21 21H16V19H19V16H21V21Z" fill="#1B1B1B" style="fill:#1B1B1B;fill:color(display-p3 0.1059 0.1059 0.1059);fill-opacity:1;"/>
<path fill-rule="evenodd" clip-rule="evenodd" d="M11.5 6C14.5376 6 17 8.46243 17 11.5C17 12.6574 16.6409 13.7302 16.0303 14.6162L17.707 16.293L16.293 17.707L14.6162 16.0303C13.7302 16.6409 12.6574 17 11.5 17C8.46243 17 6 14.5376 6 11.5C6 8.46243 8.46243 6 11.5 6ZM11.5 8C9.567 8 8 9.567 8 11.5C8 13.433 9.567 15 11.5 15C13.433 15 15 13.433 15 11.5C15 9.567 13.433 8 11.5 8Z" fill="#1B1B1B" style="fill:#1B1B1B;fill:color(display-p3 0.1059 0.1059 0.1059);fill-opacity:1;"/>
<path d="M8 5H5V8H3V3H8V5Z" fill="#1B1B1B" style="fill:#1B1B1B;fill:color(display-p3 0.1059 0.1059 0.1059);fill-opacity:1;"/>
<path d="M21 8H19V5H16V3H21V8Z" fill="#1B1B1B" style="fill:#1B1B1B;fill:color(display-p3 0.1059 0.1059 0.1059);fill-opacity:1;"/>
</svg>
