<svg width="24" height="24" viewBox="0 0 24 24" fill="none" xmlns="http://www.w3.org/2000/svg">
<path d="M9.34708 18.7715L7.41523 18.2538L8.2027 15.315C7.01359 14.877 5.92101 14.2394 4.96556 13.443L2.81223 15.5963L1.39802 14.1821L3.55135 12.0288C2.36021 10.5999 1.52454 8.86429 1.18018 6.95781L3.14826 6.59998C3.90729 10.8022 7.58371 13.9897 12.0046 13.9897C16.4255 13.9897 20.102 10.8022 20.861 6.59998L22.8291 6.95781C22.4847 8.86429 21.649 10.5999 20.4579 12.0288L22.6112 14.1821L21.197 15.5963L19.0437 13.443C18.0882 14.2394 16.9956 14.877 15.8065 15.315L16.594 18.2538L14.6622 18.7715L13.8744 15.8314C13.2667 15.9355 12.642 15.9897 12.0046 15.9897C11.3673 15.9897 10.7425 15.9355 10.1349 15.8314L9.34708 18.7715Z" fill="#1B1B1B" style="fill:#1B1B1B;fill:color(display-p3 0.1059 0.1059 0.1059);fill-opacity:1;"/>
</svg>
