<svg width="24" height="24" viewBox="0 0 24 24" fill="none" xmlns="http://www.w3.org/2000/svg">
<path fill-rule="evenodd" clip-rule="evenodd" d="M13.752 1.8525C13.8945 1.65063 14.1638 1.58282 14.3848 1.69332L16.1982 2.60055C17.2498 3.12635 17.7928 4.31371 17.5029 5.45309L16.5996 9.00094H20C21.1045 9.00094 21.9998 9.89655 22 11.0009V13.1054C22 13.3666 21.949 13.6256 21.8496 13.8672L18.7549 21.3818C18.6006 21.7565 18.2353 22.0009 17.8301 22.0009H4C3.99314 22.0009 3.98632 22.0001 3.97949 22H3V9.99996L7.48145 10.0009C7.80635 10.0009 8.11144 9.8435 8.29883 9.57809L13.752 1.8525ZM5 20.0009H7V12.0009H5V20.0009ZM9.93262 10.7314C9.68273 11.0854 9.36337 11.3757 9 11.5888V20.0009H17.1602L20 13.1054V11.0009H16.5996C15.295 11.0008 14.3394 9.77208 14.6611 8.50778L15.5645 4.95992C15.6225 4.73203 15.5141 4.49477 15.3037 4.38961L14.6426 4.05856L9.93262 10.7314Z" fill="#1B1B1B" style="fill:#1B1B1B;fill:color(display-p3 0.1059 0.1059 0.1059);fill-opacity:1;"/>
</svg>
