<svg width="24" height="24" viewBox="0 0 24 24" fill="none" xmlns="http://www.w3.org/2000/svg">
<path d="M5.37833 4.51341C7.14264 2.95119 9.46301 2.00281 12.0049 2.00281C17.5277 2.00281 22.0049 6.47996 22.0049 12.0028C22.0049 13.9425 21.4526 15.7532 20.4968 17.2863C20.3749 17.4818 20.0893 17.4587 19.9907 17.2505L17.7078 12.4312C17.6136 12.2321 17.7587 12.0028 17.979 12.0028H20.0049C20.0049 7.58453 16.4232 4.00281 12.0049 4.00281C9.76058 4.00281 7.73213 4.92697 6.27932 6.4155L5.37833 4.51341ZM18.6314 19.4922C16.8671 21.0545 14.5468 22.0028 12.0049 22.0028C6.48204 22.0028 2.00488 17.5257 2.00488 12.0028C2.00488 10.0631 2.55716 8.25237 3.51303 6.71929C3.63491 6.52381 3.9205 6.54689 4.01912 6.75508L6.30194 11.5743C6.39622 11.7734 6.25106 12.0028 6.03082 12.0028H4.00488C4.00488 16.4211 7.5866 20.0028 12.0049 20.0028C14.2492 20.0028 16.2776 19.0787 17.7304 17.5901L18.6314 19.4922ZM13.0049 13.5384H16.0049V15.5384H13.0049V17.5384H11.0049V15.5384H8.00488V13.5384H11.0049V12.5384H8.00488V10.5384H10.5907L8.46935 8.41702L9.88356 7.00281L12.0049 9.12413L14.1262 7.00281L15.5404 8.41702L13.4191 10.5384H16.0049V12.5384H13.0049V13.5384Z" fill="#1B1B1B" style="fill:#1B1B1B;fill:color(display-p3 0.1059 0.1059 0.1059);fill-opacity:1;"/>
</svg>
