<svg width="24" height="24" viewBox="0 0 24 24" fill="none" xmlns="http://www.w3.org/2000/svg">
<path d="M15.0049 15H9.00488V13H15.0049V15Z" fill="#1B1B1B" style="fill:#1B1B1B;fill:color(display-p3 0.1059 0.1059 0.1059);fill-opacity:1;"/>
<path d="M15.0049 11H9.00488V9H15.0049V11Z" fill="#1B1B1B" style="fill:#1B1B1B;fill:color(display-p3 0.1059 0.1059 0.1059);fill-opacity:1;"/>
<path fill-rule="evenodd" clip-rule="evenodd" d="M22 3V3.89746C22.0034 3.93109 22.0049 3.96547 22.0049 4V9.5C20.6242 9.50001 19.5049 10.6193 19.5049 12C19.505 13.3806 20.6243 14.5 22.0049 14.5V20C22.0049 20.0343 22.0034 20.0682 22 20.1016V21H2V19H2.00488V14.5C3.38551 14.5 4.50476 13.3806 4.50488 12C4.50488 10.6193 3.38559 9.5 2.00488 9.5V5H2V3H22ZM4.00488 7.96777C5.48655 8.70414 6.50488 10.2331 6.50488 12C6.50479 13.7667 5.48654 15.296 4.00488 16.0322V19H20.0049V16.0322C18.5232 15.296 17.505 13.7667 17.5049 12C17.5049 10.2331 18.5232 8.70415 20.0049 7.96777V5H4.00488V7.96777Z" fill="#1B1B1B" style="fill:#1B1B1B;fill:color(display-p3 0.1059 0.1059 0.1059);fill-opacity:1;"/>
</svg>
