<svg width="24" height="24" viewBox="0 0 24 24" fill="none" xmlns="http://www.w3.org/2000/svg">
<path d="M13 12.126C14.7252 12.57 16 14.1362 16 16C16 16.6902 15.8253 17.3396 15.5176 17.9062C15.4559 18.0198 15.3884 18.1297 15.3164 18.2363C15.0289 18.6618 14.6618 19.0289 14.2363 19.3164C14.1297 19.3884 14.0198 19.4559 13.9062 19.5176C13.3396 19.8253 12.6902 20 12 20C11.3098 20 10.6604 19.8253 10.0938 19.5176C9.98019 19.4559 9.87026 19.3884 9.76367 19.3164C8.69974 18.5976 8 17.3806 8 16C8 14.1362 9.27477 12.57 11 12.126V4H13V12.126Z" fill="#1B1B1B" style="fill:#1B1B1B;fill:color(display-p3 0.1059 0.1059 0.1059);fill-opacity:1;"/>
<path fill-rule="evenodd" clip-rule="evenodd" d="M16 10.2549C17.8135 11.5198 19 13.6213 19 16C19 19.866 15.866 23 12 23C8.13401 23 5 19.866 5 16C5 13.6213 6.18657 11.5198 8 10.2549V1H16V10.2549ZM10 11.2979L9.14453 11.8955C7.80976 12.8265 7 14.3432 7 16C7 18.7614 9.23858 21 12 21C14.7614 21 17 18.7614 17 16C17 14.3432 16.1903 12.8265 14.8555 11.8955L14 11.2979V3H10V11.2979Z" fill="#1B1B1B" style="fill:#1B1B1B;fill:color(display-p3 0.1059 0.1059 0.1059);fill-opacity:1;"/>
</svg>
