<svg width="24" height="24" viewBox="0 0 24 24" fill="none" xmlns="http://www.w3.org/2000/svg">
<path d="M11.7305 7.66699C11.8406 7.44433 12.1584 7.44439 12.2686 7.66699L13.4697 10.0996L16.1533 10.4893C16.3989 10.5252 16.4975 10.8274 16.3203 11.001L14.3779 12.8945L14.8359 15.5684C14.8777 15.8132 14.6204 16.0002 14.4004 15.8848L12 14.6221L9.59863 15.8848C9.37873 15.9999 9.12228 15.8131 9.16406 15.5684L9.62207 12.8945L7.67969 11.001C7.50211 10.8275 7.60007 10.5253 7.8457 10.4893L10.5303 10.0996L11.7305 7.66699Z" fill="#1B1B1B" style="fill:#1B1B1B;fill:color(display-p3 0.1059 0.1059 0.1059);fill-opacity:1;"/>
<path fill-rule="evenodd" clip-rule="evenodd" d="M21.5264 6.50098L21.5127 17.4775L11.9863 22.9775L2.47363 17.501L2.48633 6.52344L12.0127 1.02344L21.5264 6.50098ZM4.48535 7.67871L4.47461 16.3447L11.9854 20.6689L19.5146 16.3223L19.5244 7.65625L12.0146 3.33203L4.48535 7.67871Z" fill="#1B1B1B" style="fill:#1B1B1B;fill:color(display-p3 0.1059 0.1059 0.1059);fill-opacity:1;"/>
</svg>
