<svg width="24" height="24" viewBox="0 0 24 24" fill="none" xmlns="http://www.w3.org/2000/svg">
<path fill-rule="evenodd" clip-rule="evenodd" d="M21.1989 12.7121L19.7847 11.2979L14.8349 16.2477L14.1278 21.1974L12.7136 22.6116L7.76455 17.6626L3.52122 21.9059L2.10701 20.4917L6.35034 16.2484L1.3999 11.2979L2.81412 9.88372L7.76386 9.17661L12.7136 4.22686L11.2994 2.81265L12.7136 1.39844L22.6131 11.2979L21.1989 12.7121ZM9.17808 10.5908C8.87208 10.8968 8.47468 11.0952 8.04629 11.1564L4.58188 11.6515L12.3601 19.4297L12.8552 15.9653C12.9164 15.5369 13.1147 15.1395 13.4207 14.8335L18.3705 9.88372L14.1278 5.64108L9.17808 10.5908Z" fill="#1B1B1B" style="fill:#1B1B1B;fill:color(display-p3 0.1059 0.1059 0.1059);fill-opacity:1;"/>
</svg>
