<svg width="24" height="24" viewBox="0 0 24 24" fill="none" xmlns="http://www.w3.org/2000/svg">
<path d="M16 14.5H11.2754V15.7754C11.2754 16.0425 10.9527 16.1767 10.7637 15.9883L7.78711 13.0117C7.59873 12.8227 7.73292 12.5 8 12.5H16V14.5Z" fill="#1B1B1B" style="fill:#1B1B1B;fill:color(display-p3 0.1059 0.1059 0.1059);fill-opacity:1;"/>
<path d="M12.5117 7.22461C12.5117 6.95753 12.8344 6.82334 13.0234 7.01172L16 9.98828C16.1884 10.1773 16.0542 10.5 15.7871 10.5H8V8.5H12.5117V7.22461Z" fill="#1B1B1B" style="fill:#1B1B1B;fill:color(display-p3 0.1059 0.1059 0.1059);fill-opacity:1;"/>
<path fill-rule="evenodd" clip-rule="evenodd" d="M20.0254 2H21V2.89648C21.0034 2.93019 21.0049 2.96442 21.0049 2.99902V16.999L12.5596 22.6289C12.2237 22.8528 11.7861 22.8528 11.4502 22.6289L3.00488 16.999V4H3V2H3.98438C3.9912 1.99986 3.99803 1.99902 4.00488 1.99902H20.0049C20.0117 1.99902 20.0186 1.99986 20.0254 2ZM5.00488 15.9287L12.0049 20.5947L19.0049 15.9287V4L5.00488 3.99902V15.9287Z" fill="#1B1B1B" style="fill:#1B1B1B;fill:color(display-p3 0.1059 0.1059 0.1059);fill-opacity:1;"/>
</svg>
