<svg width="24" height="24" viewBox="0 0 24 24" fill="none" xmlns="http://www.w3.org/2000/svg">
<path fill-rule="evenodd" clip-rule="evenodd" d="M12.0005 1.92188C14.2528 1.92214 16.0796 3.74856 16.0796 6.00098C16.0796 7.85129 14.8463 9.41293 13.1577 9.91211V10.8398H16.0005L15.9995 12.9971H13.1577V18.8223C15.8132 18.375 17.9524 16.4169 18.6646 13.8613L17.9331 14.5938L16.4067 13.0684L19.9985 9.47656L23.5903 13.0684L22.064 14.5938L20.9556 13.4854C20.3082 17.4178 17.1358 20.4964 13.1577 21.0029V23H11.0005V21.0225C6.94811 20.5785 3.69902 17.4694 3.04346 13.4844L1.93506 14.5938L0.408691 13.0684L4.00049 9.47656L7.59131 13.0684L6.06494 14.5938L5.33447 13.8633C6.06116 16.4687 8.27256 18.453 11.0005 18.8477V12.9971H7.99951L8.00049 10.8398H11.0005V9.95508C9.2312 9.50913 7.92139 7.90859 7.92139 6.00098C7.92139 3.7484 9.74791 1.92188 12.0005 1.92188ZM12.0005 4.08008C10.9394 4.08008 10.0796 4.93985 10.0796 6.00098C10.0796 7.06211 10.9394 7.92188 12.0005 7.92188C13.0614 7.92161 13.9214 7.06195 13.9214 6.00098C13.9214 4.94001 13.0614 4.08034 12.0005 4.08008Z" fill="#1B1B1B" style="fill:#1B1B1B;fill:color(display-p3 0.1059 0.1059 0.1059);fill-opacity:1;"/>
</svg>
