<svg width="24" height="24" viewBox="0 0 24 24" fill="none" xmlns="http://www.w3.org/2000/svg">
<path fill-rule="evenodd" clip-rule="evenodd" d="M20.5 3V10.0635C21.3625 10.2855 22 11.0681 22 12C22 12.9319 21.3625 13.7145 20.5 13.9365V21H18.5C15.5 18 8.5 17 8.5 17V22H6.5L5.5 17H2.5V7H8.5C8.5 7 15.5 6 18.5 3H20.5ZM18.5 5.57422C16.75 6.77224 14.6176 7.55035 12.9395 8.04395C12.0277 8.31214 11.1833 8.51453 10.5 8.66113V15.3389C11.1833 15.4855 12.0277 15.6879 12.9395 15.9561C14.6176 16.4497 16.75 17.2278 18.5 18.4258V5.57422ZM4.5 15H8.5V9H4.5V15Z" fill="#1B1B1B" style="fill:#1B1B1B;fill:color(display-p3 0.1059 0.1059 0.1059);fill-opacity:1;"/>
</svg>
