<svg width="24" height="24" viewBox="0 0 24 24" fill="none" xmlns="http://www.w3.org/2000/svg">
<path fill-rule="evenodd" clip-rule="evenodd" d="M22 3.89746C22.0034 3.93109 22.0049 3.96547 22.0049 4V9.5C20.6242 9.50001 19.5049 10.6193 19.5049 12C19.505 13.3806 20.6243 14.5 22.0049 14.5V20C22.0049 20.0343 22.0034 20.0682 22 20.1016V21H2V19H2.00488V14.5C3.38551 14.5 4.50476 13.3806 4.50488 12C4.50488 10.6193 3.38559 9.5 2.00488 9.5V5H2V3H22V3.89746ZM9 13V15H15V13H9ZM9 9V11H15V9H9Z" fill="#1B1B1B" style="fill:#1B1B1B;fill:color(display-p3 0.1059 0.1059 0.1059);fill-opacity:1;"/>
</svg>
