<svg width="24" height="24" viewBox="0 0 24 24" fill="none" xmlns="http://www.w3.org/2000/svg">
<path d="M13 14.752V16.8414C12.3744 16.6203 11.7013 16.5 11 16.5C7.68629 16.5 5 19.1863 5 22.5H3C3 18.0817 6.58172 14.5 11 14.5C11.6906 14.5 12.3608 14.5875 13 14.752ZM11 13.5C7.685 13.5 5 10.815 5 7.5C5 4.185 7.685 1.5 11 1.5C14.315 1.5 17 4.185 17 7.5C17 10.815 14.315 13.5 11 13.5ZM11 11.5C13.21 11.5 15 9.71 15 7.5C15 5.29 13.21 3.5 11 3.5C8.79 3.5 7 5.29 7 7.5C7 9.71 8.79 11.5 11 11.5ZM17 17.5V14.5H19V17.5H22V19.5H19V22.5H17V19.5H14V17.5H17Z" fill="#1B1B1B" style="fill:#1B1B1B;fill:color(display-p3 0.1059 0.1059 0.1059);fill-opacity:1;"/>
</svg>
