<svg width="24" height="24" viewBox="0 0 24 24" fill="none" xmlns="http://www.w3.org/2000/svg">
<path fill-rule="evenodd" clip-rule="evenodd" d="M12 7C15.0376 7 17.5 9.46243 17.5 12.5C17.5 15.5376 15.0376 18 12 18C8.96243 18 6.5 15.5376 6.5 12.5C6.5 9.46243 8.96243 7 12 7ZM12 9C10.067 9 8.5 10.567 8.5 12.5C8.5 14.433 10.067 16 12 16C13.933 16 15.5 14.433 15.5 12.5C15.5 10.567 13.933 9 12 9Z" fill="#1B1B1B" style="fill:#1B1B1B;fill:color(display-p3 0.1059 0.1059 0.1059);fill-opacity:1;"/>
<path fill-rule="evenodd" clip-rule="evenodd" d="M17 5H22V21H2V5H7L9 3H15L17 5ZM7.82812 7H4V19H20V7H16.1719L14.1719 5H9.82812L7.82812 7Z" fill="#1B1B1B" style="fill:#1B1B1B;fill:color(display-p3 0.1059 0.1059 0.1059);fill-opacity:1;"/>
</svg>
