<svg width="24" height="24" viewBox="0 0 24 24" fill="none" xmlns="http://www.w3.org/2000/svg">
<path d="M12 7C13.1046 7 14 7.89543 14 9C14 9.73981 13.5981 10.3854 13.001 10.7314L13 15H11V10.7324C10.4023 10.3866 10 9.74025 10 9C10 7.89543 10.8954 7 12 7Z" fill="#1B1B1B" style="fill:#1B1B1B;fill:color(display-p3 0.1059 0.1059 0.1059);fill-opacity:1;"/>
<path fill-rule="evenodd" clip-rule="evenodd" d="M12 1L21 3V13.7891C21 13.9143 20.996 14.039 20.9883 14.1631C20.9728 14.4116 20.942 14.6575 20.8965 14.8994C20.6916 15.9872 20.1896 16.9958 19.4502 17.8135C19.2035 18.0863 18.9301 18.3373 18.6328 18.5635C18.5338 18.6388 18.4324 18.7117 18.3281 18.7812L12 23L5.67188 18.7812C5.5676 18.7117 5.46618 18.6388 5.36719 18.5635C5.06991 18.3373 4.79647 18.0863 4.5498 17.8135C3.81039 16.9958 3.30835 15.9872 3.10352 14.8994C3.05796 14.6575 3.02722 14.4116 3.01172 14.1631C3.00398 14.039 3 13.9143 3 13.7891V3L12 1ZM5 4.60449V13.7891C5 13.8724 5.00267 13.9555 5.00781 14.0381C5.05425 14.7834 5.30766 15.4926 5.72852 16.0908C5.96225 16.4231 6.24805 16.7206 6.57812 16.9717C6.64418 17.0219 6.71166 17.0708 6.78125 17.1172L12 20.5967L17.2188 17.1172C17.2883 17.0708 17.3558 17.0219 17.4219 16.9717C17.752 16.7206 18.0378 16.4231 18.2715 16.0908C18.6923 15.4926 18.9458 14.7834 18.9922 14.0381C18.9973 13.9555 19 13.8724 19 13.7891V4.60449L12 3.04883L5 4.60449Z" fill="#1B1B1B" style="fill:#1B1B1B;fill:color(display-p3 0.1059 0.1059 0.1059);fill-opacity:1;"/>
</svg>
