<svg width="24" height="24" viewBox="0 0 24 24" fill="none" xmlns="http://www.w3.org/2000/svg">
<path fill-rule="evenodd" clip-rule="evenodd" d="M12.6836 2.66823C12.8973 2.49337 13.2118 2.52482 13.3867 2.73854C13.4598 2.82785 13.5 2.93958 13.5 3.05495V20.9446C13.4999 21.2207 13.276 21.4446 13 21.4446C12.8846 21.4446 12.7729 21.4044 12.6836 21.3313L6.38867 16.9993L1.5 17.0003V7.00026L6.38867 6.99928L12.6836 2.66823ZM7.10254 8.99928H3.5V14.9993H7.10254L11.5 17.7796V6.21999L7.10254 8.99928Z" fill="#1B1B1B" style="fill:#1B1B1B;fill:color(display-p3 0.1059 0.1059 0.1059);fill-opacity:1;"/>
<path d="M22.9854 9.17214L20.1572 12.0003L22.9854 14.8294L21.5713 16.2434L18.7422 13.4143L15.9141 16.2434L14.5 14.8294L17.3281 12.0003L14.5 9.17214L15.9141 7.75807L18.7422 10.5862L21.5713 7.75807L22.9854 9.17214Z" fill="#1B1B1B" style="fill:#1B1B1B;fill:color(display-p3 0.1059 0.1059 0.1059);fill-opacity:1;"/>
</svg>
