<svg width="24" height="24" viewBox="0 0 24 24" fill="none" xmlns="http://www.w3.org/2000/svg">
<path d="M12 1C16.0796 1 19.4464 4.05369 19.9385 8H21C22.1046 8 23 8.89543 23 10V14C23 15.1046 22.1046 16 21 16H19.9385C19.4464 19.9463 16.0796 23 12 23V21C15.3137 21 18 18.3137 18 15V9C18 5.68629 15.3137 3 12 3C8.68629 3 6 5.68629 6 9V16H3C1.89543 16 1 15.1046 1 14V10C1 8.89543 1.89543 8 3 8H4.06152C4.55362 4.05369 7.92038 1 12 1ZM15.7998 11.5996L12.24 16.3469C12.12 16.5069 11.88 16.5069 11.76 16.3469L8.2002 11.5996L9.7998 10.4004L12 13.334L14.2002 10.4004L15.7998 11.5996ZM3 14H4V10H3V14ZM20 14H21V10H20V14Z" fill="#1B1B1B" style="fill:#1B1B1B;fill:color(display-p3 0.1059 0.1059 0.1059);fill-opacity:1;"/>
</svg>
