<svg width="24" height="24" viewBox="0 0 24 24" fill="none" xmlns="http://www.w3.org/2000/svg">
<g clip-path="url(#clip0_1_1744)">
<path fill-rule="evenodd" clip-rule="evenodd" d="M15.3135 4.00098H20V8.6875L23.3135 12.001L20 15.3145V20.001H15.3135L12 23.3145L8.68652 20.001H4V15.3145L0.686523 12.001L4 8.6875V4.00098H8.68652L12 0.6875L15.3135 4.00098ZM12.2803 7.05859C11.6476 7.05859 11.0537 7.16712 10.499 7.38379C9.95304 7.60046 9.50681 7.93008 9.16016 8.37207C8.82229 8.814 8.65334 9.36396 8.65332 10.0225C8.65332 10.6204 8.79605 11.1059 9.08203 11.4785C9.368 11.8425 9.70576 12.1159 10.0957 12.2979C10.4944 12.4798 11.0059 12.6618 11.6299 12.8438C12.0545 12.9651 12.3842 13.0736 12.6182 13.1689C12.852 13.2642 13.0472 13.385 13.2031 13.5322C13.3591 13.6796 13.4365 13.8665 13.4365 14.0918C13.4365 14.369 13.3199 14.5812 13.0859 14.7285C12.8607 14.8671 12.5619 14.9365 12.1895 14.9365C11.6868 14.9365 11.2486 14.8149 10.876 14.5723C10.5121 14.3296 10.2346 13.9877 10.0439 13.5459L8.25 14.5723C8.49265 15.3349 8.97814 15.9198 9.70605 16.3271C10.4341 16.7258 11.236 16.9258 12.1113 16.9258C12.6919 16.9257 13.2599 16.8303 13.8145 16.6396C14.3689 16.4403 14.8285 16.1196 15.1924 15.6777C15.5649 15.2358 15.7509 14.6637 15.751 13.9619C15.751 13.3639 15.6033 12.8785 15.3086 12.5059C15.0139 12.1332 14.6672 11.8558 14.2686 11.6738C13.8699 11.4832 13.3502 11.2922 12.709 11.1016C12.293 10.9716 11.9724 10.863 11.7471 10.7764C11.5217 10.6897 11.3308 10.5771 11.1748 10.4385C11.0276 10.2998 10.9541 10.1309 10.9541 9.93164C10.9541 9.67164 11.0626 9.45959 11.2793 9.29492C11.5046 9.13027 11.7951 9.04785 12.1504 9.04785C12.5662 9.04792 12.9172 9.15645 13.2031 9.37305C13.4975 9.58961 13.7139 9.89258 13.8525 10.2822L15.6729 9.25586C15.4909 8.55387 15.0879 8.01219 14.4639 7.63086C13.8399 7.24957 13.1122 7.05864 12.2803 7.05859Z" fill="#1B1B1B" style="fill:#1B1B1B;fill:color(display-p3 0.1059 0.1059 0.1059);fill-opacity:1;"/>
</g>
<defs>
<clipPath id="clip0_1_1744">
<rect width="24" height="24" fill="white" style="fill:white;fill-opacity:1;"/>
</clipPath>
</defs>
</svg>
