<svg width="24" height="24" viewBox="0 0 24 24" fill="none" xmlns="http://www.w3.org/2000/svg">
<path d="M16.3719 17.334C16.5203 17.511 16.4214 17.7823 16.1938 17.8223L15.1748 18.001C15.4963 18.8941 16.2354 19.6223 17.2217 19.8867C18.2513 20.1625 19.2974 19.8641 20.0283 19.1924L21.3164 20.7275C20.1018 21.8032 18.3883 22.2695 16.7041 21.8184C15.0517 21.3754 13.8156 20.1535 13.2842 18.6543L13.1875 18.3516C13.143 18.1929 13.1054 18.0299 13.0762 17.8643C12.873 16.711 13.0826 15.5796 13.5988 14.6232C13.6946 14.4457 13.9367 14.4307 14.0663 14.5852L16.3719 17.334Z" fill="#1B1B1B" style="fill:#1B1B1B;fill:color(display-p3 0.1059 0.1059 0.1059);fill-opacity:1;"/>
<path fill-rule="evenodd" clip-rule="evenodd" d="M21 11H19V5H16V10H8V5H5V19H12V21H3V3H21V11ZM10 8H14V5H10V8Z" fill="#1B1B1B" style="fill:#1B1B1B;fill:color(display-p3 0.1059 0.1059 0.1059);fill-opacity:1;"/>
<path d="M14.6816 13.2539C15.8961 12.1785 17.6099 11.7121 19.2939 12.1631C20.9463 12.6059 22.1824 13.8281 22.7139 15.3271L22.8105 15.6299C22.855 15.7885 22.8926 15.9516 22.9219 16.1172C23.1251 17.2705 22.9155 18.4018 22.3992 19.3582C22.3035 19.5357 22.0613 19.5508 21.9317 19.3962L19.6262 16.6475C19.4777 16.4705 19.5767 16.1991 19.8042 16.1592L20.8232 15.9805C20.5017 15.0874 19.7626 14.3591 18.7764 14.0947C17.747 13.8192 16.7015 14.1177 15.9707 14.7891L14.6816 13.2539Z" fill="#1B1B1B" style="fill:#1B1B1B;fill:color(display-p3 0.1059 0.1059 0.1059);fill-opacity:1;"/>
</svg>
