<svg width="24" height="24" viewBox="0 0 24 24" fill="none" xmlns="http://www.w3.org/2000/svg">
<path fill-rule="evenodd" clip-rule="evenodd" d="M11.5893 0.593717C11.7881 0.307252 12.2117 0.307353 12.4106 0.593717L15.7797 5.45407L21.6733 5.94137C22.0211 5.97015 22.2333 6.33768 22.0844 6.65329L19.56 12.0009L22.0844 17.3486C22.2334 17.6642 22.0211 18.0317 21.6733 18.0605L15.7797 18.5488L12.4106 23.4082C12.2117 23.695 11.7882 23.695 11.5893 23.4082L8.22016 18.5488L2.3266 18.0605C1.97877 18.0317 1.76648 17.6642 1.91547 17.3486L4.43988 12.0009L1.91547 6.65329C1.76671 6.3377 1.97885 5.97015 2.3266 5.94137L8.22016 5.45407L11.5893 0.593717ZM8.49945 8.50094V15.5009H10.4995V11.5009L13.4995 15.5009H15.4995V8.50094H13.4995V12.5009L10.4995 8.50094H8.49945Z" fill="#1B1B1B" style="fill:#1B1B1B;fill:color(display-p3 0.1059 0.1059 0.1059);fill-opacity:1;"/>
</svg>
