<svg width="24" height="24" viewBox="0 0 24 24" fill="none" xmlns="http://www.w3.org/2000/svg">
<path d="M16 16C16 18.2091 14.2091 20 12 20C9.79086 20 8 18.2091 8 16H16Z" fill="#1B1B1B" style="fill:#1B1B1B;fill:color(display-p3 0.1059 0.1059 0.1059);fill-opacity:1;"/>
<path fill-rule="evenodd" clip-rule="evenodd" d="M16 10.2549C17.8135 11.5198 19 13.6213 19 16C19 19.866 15.866 23 12 23C8.13401 23 5 19.866 5 16C5 13.6213 6.18657 11.5198 8 10.2549V1H16V10.2549ZM10 11.2979L9.14453 11.8955C7.80976 12.8265 7 14.3432 7 16C7 18.7614 9.23858 21 12 21C14.7614 21 17 18.7614 17 16C17 14.3432 16.1903 12.8265 14.8555 11.8955L14 11.2979V3H10V11.2979Z" fill="#1B1B1B" style="fill:#1B1B1B;fill:color(display-p3 0.1059 0.1059 0.1059);fill-opacity:1;"/>
</svg>
