<svg width="24" height="24" viewBox="0 0 24 24" fill="none" xmlns="http://www.w3.org/2000/svg">
<path d="M22.0342 16.2577L12 22.5946L1.96582 16.2577L3.03418 14.5663L12 20.2284L20.9658 14.5663L22.0342 16.2577Z" fill="#1B1B1B" style="fill:#1B1B1B;fill:color(display-p3 0.1059 0.1059 0.1059);fill-opacity:1;"/>
<path d="M22.0342 11.7577L12 18.0946L1.96582 11.7577L3.03418 10.0663L12 15.7284L20.9658 10.0663L22.0342 11.7577Z" fill="#1B1B1B" style="fill:#1B1B1B;fill:color(display-p3 0.1059 0.1059 0.1059);fill-opacity:1;"/>
<path fill-rule="evenodd" clip-rule="evenodd" d="M21.2861 6.98132C21.5892 7.16365 21.6076 7.58764 21.3418 7.79968L21.2861 7.83875L12 13.41L2.71484 7.83875C2.39117 7.64454 2.39117 7.17552 2.71484 6.98132L12 1.41003L21.2861 6.98132ZM5.88672 7.41003L11.999 11.078L18.1133 7.41003L11.999 3.74207L5.88672 7.41003Z" fill="#1B1B1B" style="fill:#1B1B1B;fill:color(display-p3 0.1059 0.1059 0.1059);fill-opacity:1;"/>
</svg>
