<svg width="24" height="24" viewBox="0 0 24 24" fill="none" xmlns="http://www.w3.org/2000/svg">
<path d="M9.00488 8C9.00488 9.65684 10.348 11 12.0049 11C13.6617 11 15.0049 9.65685 15.0049 8V6H17.0049V8C17.0049 10.7614 14.7663 13 12.0049 13C9.24345 13 7.00488 10.7614 7.00488 8V6H9.00488V8Z" fill="#1B1B1B" style="fill:#1B1B1B;fill:color(display-p3 0.1059 0.1059 0.1059);fill-opacity:1;"/>
<path fill-rule="evenodd" clip-rule="evenodd" d="M21 2.89746C21.0034 2.93116 21.0049 2.96539 21.0049 3V21C21.0049 21.0346 21.0034 21.0688 21 21.1025V22H3V2H21V2.89746ZM5.00488 20H19V4H5.00488V20Z" fill="#1B1B1B" style="fill:#1B1B1B;fill:color(display-p3 0.1059 0.1059 0.1059);fill-opacity:1;"/>
</svg>
