<svg width="24" height="24" viewBox="0 0 24 24" fill="none" xmlns="http://www.w3.org/2000/svg">
<path fill-rule="evenodd" clip-rule="evenodd" d="M9.32814 5.89861C11.4921 5.05586 14.0898 5.15265 16.169 6.56169C17.8931 7.73023 18.5726 9.46072 18.8906 11.1418C19.0488 11.978 19.1239 12.8362 19.1856 13.6359C19.2487 14.4541 19.2971 15.1975 19.3965 15.8898C19.5081 16.667 19.6438 17.1341 19.7891 17.5763C19.9385 18.0309 20.1263 18.5368 20.2891 19.2873C20.637 20.8921 19.7308 22.2371 18.4287 22.7277C17.108 23.2252 15.5008 22.8329 14.3447 21.4103C13.4179 20.2698 12.989 19.7851 12.4209 19.3967C11.8298 18.9927 11.0514 18.6679 9.334 18.007C6.44438 16.895 4.31347 14.0161 4.84279 11.1457C5.31643 8.57838 7.15778 6.74401 9.32814 5.89861ZM15.0469 8.21794C13.5877 7.22898 11.6961 7.12189 10.0547 7.76091C8.41975 8.39764 7.13854 9.73088 6.81056 11.508C6.50559 13.161 7.77713 15.2651 10.0528 16.1408C11.7047 16.7765 12.7272 17.1822 13.5508 17.7453C14.3974 18.3242 14.9984 19.0444 15.8965 20.1496C16.5653 20.9725 17.2878 21.0198 17.7236 20.8556C18.1782 20.6844 18.4551 20.2653 18.335 19.7111C18.2001 19.0893 18.0575 18.7102 17.8897 18.1994C17.7177 17.6759 17.549 17.0944 17.417 16.175C17.3056 15.3993 17.2515 14.5674 17.1914 13.7892C17.1299 12.9922 17.0607 12.231 16.9248 11.5129C16.6547 10.085 16.1454 8.96254 15.0469 8.21794Z" fill="#1B1B1B" style="fill:#1B1B1B;fill:color(display-p3 0.1059 0.1059 0.1059);fill-opacity:1;"/>
<path d="M2.29885 6.75017C3.0162 6.336 3.93339 6.58175 4.34767 7.299C4.76189 8.01644 4.51628 8.93361 3.79885 9.34783C3.08141 9.76203 2.16423 9.51643 1.75002 8.799C1.33589 8.08164 1.58158 7.16443 2.29885 6.75017Z" fill="#1B1B1B" style="fill:#1B1B1B;fill:color(display-p3 0.1059 0.1059 0.1059);fill-opacity:1;"/>
<path d="M5.01467 4.05388C6.56071 2.88898 10.0426 0.614972 14.749 2.29119L14.0781 4.17595C10.3596 2.85151 7.62163 4.59452 6.21877 5.65154L5.01467 4.05388Z" fill="#1B1B1B" style="fill:#1B1B1B;fill:color(display-p3 0.1059 0.1059 0.1059);fill-opacity:1;"/>
</svg>
