<svg width="24" height="24" viewBox="0 0 24 24" fill="none" xmlns="http://www.w3.org/2000/svg">
<path d="M14.5352 7.87891L12.4141 10H15V12H12V13H15V15H12V17H10V15H7V13H10V12H7V10H9.58594L7.46484 7.87891L8.87891 6.46484L11 8.58594L13.1211 6.46484L14.5352 7.87891Z" fill="#1B1B1B" style="fill:#1B1B1B;fill:color(display-p3 0.1059 0.1059 0.1059);fill-opacity:1;"/>
<path fill-rule="evenodd" clip-rule="evenodd" d="M19 15H23V19C23 20.6569 21.6569 22 20 22H6C4.34315 22 3 20.6569 3 19V2H19V15ZM5 19C5 19.5523 5.44772 20 6 20H17V4H5V19ZM19 19C19 19.5523 19.4477 20 20 20C20.5523 20 21 19.5523 21 19V17H19V19Z" fill="#1B1B1B" style="fill:#1B1B1B;fill:color(display-p3 0.1059 0.1059 0.1059);fill-opacity:1;"/>
</svg>
