<svg width="24" height="24" viewBox="0 0 24 24" fill="none" xmlns="http://www.w3.org/2000/svg">
<path d="M8.5 8.5H15.5V3H21V12H17C14.2386 12 12 14.2386 12 17C12 18.6357 12.7857 20.0878 14 21H3V3H8.5V8.5Z" fill="#1B1B1B" style="fill:#1B1B1B;fill:color(display-p3 0.1059 0.1059 0.1059);fill-opacity:1;"/>
<path d="M10 3H14V7H10V3Z" fill="#1B1B1B" style="fill:#1B1B1B;fill:color(display-p3 0.1059 0.1059 0.1059);fill-opacity:1;"/>
<path d="M21 15H17C15.8954 15 15 15.8954 15 17C15 18.1046 15.8954 19 17 19H20V18.6242C20 18.3726 20.291 18.2328 20.4874 18.3899L22.2072 19.7657C22.3573 19.8858 22.3573 20.1142 22.2072 20.2343L20.4874 21.6101C20.291 21.7672 20 21.6274 20 21.3758V21H17C14.7909 21 13 19.2091 13 17C13 14.7909 14.7909 13 17 13H21V15Z" fill="#1B1B1B" style="fill:#1B1B1B;fill:color(display-p3 0.1059 0.1059 0.1059);fill-opacity:1;"/>
</svg>
