<svg width="24" height="24" viewBox="0 0 24 24" fill="none" xmlns="http://www.w3.org/2000/svg">
<path fill-rule="evenodd" clip-rule="evenodd" d="M20.0205 2H21V14L16.5186 13.999C16.1937 13.999 15.8886 14.1565 15.7012 14.4219L10.248 22.1475C10.1055 22.3493 9.83623 22.4171 9.61523 22.3066L7.80176 21.3994C6.7502 20.8736 6.20716 19.6863 6.49707 18.5469L7.40039 14.999H4C2.8955 14.999 2.00016 14.1034 2 12.999V10.8945C2 10.6334 2.05101 10.3744 2.15039 10.1328L5.24512 2.61816C5.39942 2.24346 5.76472 1.99902 6.16992 1.99902H20C20.0069 1.99902 20.0137 1.99986 20.0205 2ZM4 10.8945V12.999H7.40039C8.70498 12.9991 9.66062 14.2279 9.33887 15.4922L8.43555 19.04C8.37755 19.2679 8.48589 19.5052 8.69629 19.6104L9.35742 19.9414L14.0674 13.2686C14.3173 12.9146 14.6366 12.6243 15 12.4111V3.99902H6.83984L4 10.8945ZM17 11.999H19V3.99902H17V11.999Z" fill="#1B1B1B" style="fill:#1B1B1B;fill:color(display-p3 0.1059 0.1059 0.1059);fill-opacity:1;"/>
</svg>
