<svg width="24" height="24" viewBox="0 0 24 24" fill="none" xmlns="http://www.w3.org/2000/svg">
<path d="M12.0969 11.7452C12.2838 11.8628 12.2838 12.1352 12.0969 12.2529L7.45987 15.1733C7.2601 15.2991 7 15.1555 7 14.9194V9.07863C7 8.84254 7.2601 8.69896 7.45987 8.82478L12.0969 11.7452Z" fill="#1B1B1B" style="fill:#1B1B1B;fill:color(display-p3 0.1059 0.1059 0.1059);fill-opacity:1;"/>
<path fill-rule="evenodd" clip-rule="evenodd" d="M17 8.75098L22.2354 5.47949C22.5684 5.27144 23 5.51063 23 5.90332V18.0986C22.9998 18.4664 22.6205 18.7 22.2988 18.5566L22.2354 18.5225L17 15.25V20.5H1V3.5H17V8.75098ZM3 18.5H15V5.5H3V18.5ZM17 11.1094V12.8916L21 15.3926V8.6084L17 11.1094Z" fill="#1B1B1B" style="fill:#1B1B1B;fill:color(display-p3 0.1059 0.1059 0.1059);fill-opacity:1;"/>
</svg>
