<svg width="24" height="24" viewBox="0 0 24 24" fill="none" xmlns="http://www.w3.org/2000/svg">
<path fill-rule="evenodd" clip-rule="evenodd" d="M15.082 2H16V5.99609H20C20.0276 5.99609 20.055 5.9978 20.082 6H21V11.9961H20V22H18V21.9961H6V22H4V11.9961H3V6H3.91797C3.94504 5.9978 3.97236 5.99609 4 5.99609H8V2H8.91797C8.94504 1.9978 8.97236 1.99609 9 1.99609H15C15.0276 1.99609 15.055 1.9978 15.082 2ZM6 19.9961H8V14.9961H10V19.9961H18V11.9961H6V19.9961ZM10 7.99609H5V9.99609H19V7.99609H14V3.99609H10V7.99609Z" fill="#1B1B1B" style="fill:#1B1B1B;fill:color(display-p3 0.1059 0.1059 0.1059);fill-opacity:1;"/>
</svg>
