<svg width="24" height="24" viewBox="0 0 24 24" fill="none" xmlns="http://www.w3.org/2000/svg">
<path fill-rule="evenodd" clip-rule="evenodd" d="M23 18H20.9639C20.7212 19.6961 19.2632 21 17.5 21C15.7368 21 14.2788 19.6961 14.0361 18H10.9639C10.7212 19.6961 9.2632 21 7.5 21C5.73675 21 4.27775 19.6962 4.03516 18L1 18.001V10.8906C1 10.6988 1.05544 10.5109 1.15918 10.3496L3.9541 6.00293H8V3H23V18ZM7.5 16C6.67157 16 6 16.6716 6 17.5C6 18.3284 6.67157 19 7.5 19C8.32843 19 9 18.3284 9 17.5C9 16.6716 8.32843 16 7.5 16ZM17.5 16C16.6716 16 16 16.6716 16 17.5C16 18.3284 16.6716 19 17.5 19C18.3284 19 19 18.3284 19 17.5C19 16.6716 18.3284 16 17.5 16ZM5.04492 8.00195L3.11816 11H8V8.00098L5.04492 8.00195ZM14 9V10.5H21V9H14ZM14 7.5H19V6H14V7.5Z" fill="#1B1B1B" style="fill:#1B1B1B;fill:color(display-p3 0.1059 0.1059 0.1059);fill-opacity:1;"/>
</svg>
