<svg width="24" height="24" viewBox="0 0 24 24" fill="none" xmlns="http://www.w3.org/2000/svg">
<path d="M12 22C6.47715 22 2 17.5228 2 12C2 6.47715 6.47715 2 12 2C17.5228 2 22 6.47715 22 12C22 17.5228 17.5228 22 12 22ZM16.632 16.7376C16.7273 16.909 16.9589 16.9445 17.0934 16.8018C18.2755 15.5484 19 13.8588 19 12C19 8.13401 15.866 5 12 5C10.9391 5 9.9334 5.23599 9.03241 5.65834L10.0072 7.41292C10.6177 7.14729 11.2917 7 12 7C14.7614 7 17 9.23858 17 12H14.5099C14.2811 12 14.1365 12.2457 14.2476 12.4457L16.632 16.7376ZM14.9676 18.3417L13.9928 16.5871C13.3823 16.8527 12.7083 17 12 17C9.23858 17 7 14.7614 7 12H9.49015C9.71889 12 9.86348 11.7543 9.75239 11.5543L7.368 7.2624C7.27276 7.09096 7.04117 7.05549 6.90661 7.19817C5.72454 8.45155 5 10.1412 5 12C5 15.866 8.13401 19 12 19C13.0609 19 14.0666 18.764 14.9676 18.3417Z" fill="#1B1B1B" style="fill:#1B1B1B;fill:color(display-p3 0.1059 0.1059 0.1059);fill-opacity:1;"/>
</svg>
