<svg width="24" height="24" viewBox="0 0 24 24" fill="none" xmlns="http://www.w3.org/2000/svg">
<path fill-rule="evenodd" clip-rule="evenodd" d="M20 5H10V12H8V8.00098L5.04492 8.00195L3 11.1836V16H4.33691C4.89865 14.8175 6.10382 14 7.5 14C8.89618 14 10.1013 14.8175 10.6631 16H14.3369C14.8987 14.8175 16.1038 14 17.5 14C19.433 14 21 15.567 21 17.5C21 19.433 19.433 21 17.5 21C15.7368 21 14.2788 19.6961 14.0361 18H10.9639C10.7212 19.6961 9.2632 21 7.5 21C5.73675 21 4.27775 19.6962 4.03516 18L1 18.001V10.5967L3.9541 6.00293L8 6.00098V3H20V5ZM7.5 16C6.67157 16 6 16.6716 6 17.5C6 18.3284 6.67157 19 7.5 19C8.32843 19 9 18.3284 9 17.5C9 16.6716 8.32843 16 7.5 16ZM17.5 16C16.6716 16 16 16.6716 16 17.5C16 18.3284 16.6716 19 17.5 19C18.3284 19 19 18.3284 19 17.5C19 16.6716 18.3284 16 17.5 16Z" fill="#1B1B1B" style="fill:#1B1B1B;fill:color(display-p3 0.1059 0.1059 0.1059);fill-opacity:1;"/>
<path d="M23 12H15V10H23V12Z" fill="#1B1B1B" style="fill:#1B1B1B;fill:color(display-p3 0.1059 0.1059 0.1059);fill-opacity:1;"/>
<path d="M20 9H15V7H20V9Z" fill="#1B1B1B" style="fill:#1B1B1B;fill:color(display-p3 0.1059 0.1059 0.1059);fill-opacity:1;"/>
</svg>
