<svg width="24" height="24" viewBox="0 0 24 24" fill="none" xmlns="http://www.w3.org/2000/svg">
<path fill-rule="evenodd" clip-rule="evenodd" d="M17.2695 9.87988L22.6582 7.18643C22.8833 7.07394 23.1385 7.27179 23.0856 7.51779L20.1895 21H3.80859L0.912418 7.51784C0.859573 7.27183 1.11482 7.07398 1.33987 7.18649L6.72754 9.87988L11.7549 2.84179C11.8745 2.67428 12.1235 2.67429 12.2431 2.84181L17.2695 9.87988ZM10.8564 11.8828L8.78913 12.1284C8.53496 12.1586 8.43291 12.4727 8.6208 12.6465L10.1484 14.0596L9.74293 16.1012C9.69306 16.3523 9.9604 16.5465 10.1838 16.4214L12 15.4043L13.8162 16.4214C14.0396 16.5465 14.3069 16.3523 14.2571 16.1012L13.8516 14.0596L15.3799 12.6466C15.5679 12.4728 15.4658 12.1586 15.2116 12.1284L13.1445 11.8828L12.2725 9.99295C12.1653 9.7605 11.8349 9.76055 11.7277 9.99304L10.8564 11.8828Z" fill="#1B1B1B" style="fill:#1B1B1B;fill:color(display-p3 0.1059 0.1059 0.1059);fill-opacity:1;"/>
</svg>
