<svg width="24" height="24" viewBox="0 0 24 24" fill="none" xmlns="http://www.w3.org/2000/svg">
<path d="M11.7305 6.54492C11.8405 6.32204 12.1584 6.32223 12.2686 6.54492L13.4697 8.97754L16.1533 9.36719C16.3992 9.40292 16.4979 9.70529 16.3203 9.87891L14.3779 11.7725L14.8359 14.4463C14.8777 14.6912 14.6204 14.8784 14.4004 14.7627L12 13.5L9.59863 14.7627C9.37873 14.8778 9.12228 14.6911 9.16406 14.4463L9.62207 11.7725L7.67969 9.87891C7.50211 9.7054 7.60007 9.40321 7.8457 9.36719L10.5303 8.97754L11.7305 6.54492Z" fill="#1B1B1B" style="fill:#1B1B1B;fill:color(display-p3 0.1059 0.1059 0.1059);fill-opacity:1;"/>
<path fill-rule="evenodd" clip-rule="evenodd" d="M20 22.0977C20 22.4903 19.5684 22.7295 19.2354 22.5215L12 18L4.76465 22.5215C4.43163 22.7295 4 22.4903 4 22.0977V2H20V22.0977ZM6 19.3906L12 15.6416L18 19.3906V4H6V19.3906Z" fill="#1B1B1B" style="fill:#1B1B1B;fill:color(display-p3 0.1059 0.1059 0.1059);fill-opacity:1;"/>
</svg>
