<svg width="24" height="24" viewBox="0 0 24 24" fill="none" xmlns="http://www.w3.org/2000/svg">
<path d="M18.0107 15.5449C18.1208 15.3221 18.4387 15.3222 18.5488 15.5449L19.6025 17.6797L21.958 18.0215C22.204 18.0572 22.302 18.3596 22.124 18.5332L20.4199 20.1953L20.8223 22.541C20.8643 22.7861 20.6068 22.9731 20.3867 22.8574L18.2803 21.75L16.1729 22.8574C15.9529 22.973 15.6956 22.7869 15.7373 22.542L16.1396 20.1953L14.4355 18.5332C14.2576 18.3596 14.3555 18.0572 14.6016 18.0215L16.957 17.6797L18.0107 15.5449Z" fill="#1B1B1B" style="fill:#1B1B1B;fill:color(display-p3 0.1059 0.1059 0.1059);fill-opacity:1;"/>
<path d="M21 14H19V4H5V20H13V22H3V2H21V14Z" fill="#1B1B1B" style="fill:#1B1B1B;fill:color(display-p3 0.1059 0.1059 0.1059);fill-opacity:1;"/>
<path d="M13 17H8V15H13V17Z" fill="#1B1B1B" style="fill:#1B1B1B;fill:color(display-p3 0.1059 0.1059 0.1059);fill-opacity:1;"/>
<path d="M16 13H8V11H16V13Z" fill="#1B1B1B" style="fill:#1B1B1B;fill:color(display-p3 0.1059 0.1059 0.1059);fill-opacity:1;"/>
<path d="M16 9H8V7H16V9Z" fill="#1B1B1B" style="fill:#1B1B1B;fill:color(display-p3 0.1059 0.1059 0.1059);fill-opacity:1;"/>
</svg>
