<svg width="24" height="24" viewBox="0 0 24 24" fill="none" xmlns="http://www.w3.org/2000/svg">
<path d="M4.22467 4.5C5.54377 12.367 11.969 18.504 19.9747 19.3887V15.3564C18.7232 15.1769 17.5246 14.8324 16.4024 14.3447L14.8614 16.7969L13.1612 15.7002C11.1286 14.3895 9.37757 12.6815 8.01763 10.6846L6.88189 9.01562L9.28717 7.41016C8.85768 6.49003 8.52516 5.51601 8.30279 4.5H4.22467ZM21.9747 20.5C21.9747 21.0523 21.5263 21.5027 20.9747 21.4756L20.5128 21.4473C10.9823 20.7588 3.30346 13.3922 2.13092 4.00391L2.07916 3.54785C2.02496 3.01487 2.42354 2.56077 2.94439 2.50586L3.05084 2.5H9.09674C9.61702 2.5 10.0465 2.90037 10.129 3.41406C10.3462 4.76594 10.7892 6.042 11.418 7.20312C11.6792 7.6853 11.5576 8.29895 11.1016 8.60352L9.67096 9.55859C10.8804 11.3345 12.4377 12.854 14.2452 14.0195L15.1622 12.5615C15.4543 12.097 16.0645 11.9587 16.5538 12.207C17.9013 12.8909 19.3949 13.3285 20.9756 13.459C21.5261 13.5044 21.9747 13.9477 21.9747 14.5V20.5Z" fill="#1B1B1B" style="fill:#1B1B1B;fill:color(display-p3 0.1059 0.1059 0.1059);fill-opacity:1;"/>
</svg>
