<svg width="24" height="24" viewBox="0 0 24 24" fill="none" xmlns="http://www.w3.org/2000/svg">
<path d="M21 11.8037C20.1174 11.293 19.093 11 18 11C14.6863 11 12 13.6863 12 17C12 18.5371 12.5788 19.9384 13.5293 21H3V9.5H21V11.8037Z" fill="#1B1B1B" style="fill:#1B1B1B;fill:color(display-p3 0.1059 0.1059 0.1059);fill-opacity:1;"/>
<path d="M22 8H2V3H22V8Z" fill="#1B1B1B" style="fill:#1B1B1B;fill:color(display-p3 0.1059 0.1059 0.1059);fill-opacity:1;"/>
<path d="M16.7061 17.7327L15.1749 18.0013C15.4964 18.8945 16.2354 19.6226 17.2217 19.887C18.2514 20.1628 19.2975 19.8644 20.0284 19.1927L21.3165 20.7278C20.1019 21.8035 18.3884 22.2699 16.7041 21.8187C15.0517 21.3758 13.8156 20.1538 13.2842 18.6546L13.1875 18.3519C13.1431 18.1932 13.1055 18.0303 13.0762 17.8646C12.8477 16.5676 13.1412 15.2986 13.8057 14.2747L16.7061 17.7327Z" fill="#1B1B1B" style="fill:#1B1B1B;fill:color(display-p3 0.1059 0.1059 0.1059);fill-opacity:1;"/>
<path d="M14.6817 13.2542C15.8962 12.1787 17.6099 11.7124 19.294 12.1634C20.9465 12.6063 22.1825 13.8282 22.7139 15.3275L22.8106 15.6302C22.8551 15.7889 22.8927 15.9517 22.9219 16.1175C23.1505 17.4144 22.857 18.6834 22.1924 19.7073L19.292 16.2493L20.8233 15.9808C20.5018 15.0876 19.7628 14.3594 18.7764 14.095C17.747 13.8194 16.7015 14.1179 15.9708 14.7894L14.6817 13.2542Z" fill="#1B1B1B" style="fill:#1B1B1B;fill:color(display-p3 0.1059 0.1059 0.1059);fill-opacity:1;"/>
</svg>
