<svg preserveAspectRatio="none" width="100%" height="100%" overflow="visible" style="display: block;" viewBox="0 0 16 16" fill="none" xmlns="http://www.w3.org/2000/svg">
<g id="left">
<path id="Star 27" d="M9.99387 6.19001C10.1837 5.74369 10.8163 5.74369 11.0061 6.19001L11.7072 7.83845C11.9856 8.49308 12.5069 9.01435 13.1615 9.29277L14.81 9.99387C15.2563 10.1837 15.2563 10.8163 14.81 11.0061L13.1615 11.7072C12.5069 11.9856 11.9856 12.5069 11.7072 13.1615L11.0061 14.81C10.8163 15.2563 10.1837 15.2563 9.99387 14.81L9.29277 13.1615C9.01435 12.5069 8.49308 11.9856 7.83845 11.7072L6.19001 11.0061C5.74369 10.8163 5.74369 10.1837 6.19001 9.99387L7.83845 9.29277C8.49308 9.01435 9.01435 8.49308 9.29277 7.83845L9.99387 6.19001Z" fill="url(#paint0_linear_0_6)"/>
<path id="Star 28" opacity="0.7" d="M4.26994 0.540914C4.35623 0.338042 4.64377 0.338042 4.73006 0.540914L5.04874 1.29021C5.17529 1.58776 5.41224 1.82471 5.70979 1.95126L6.45909 2.26994C6.66196 2.35623 6.66196 2.64377 6.45909 2.73006L5.70979 3.04874C5.41224 3.17529 5.17529 3.41224 5.04874 3.70979L4.73006 4.45909C4.64377 4.66196 4.35623 4.66196 4.26994 4.45909L3.95126 3.70979C3.82471 3.41224 3.58776 3.17529 3.29021 3.04874L2.54091 2.73006C2.33804 2.64377 2.33804 2.35623 2.54091 2.26994L3.29021 1.95126C3.58776 1.82471 3.82471 1.58777 3.95126 1.29021L4.26994 0.540914Z" fill="url(#paint1_linear_0_6)"/>
</g>
<defs>
<linearGradient id="paint0_linear_0_6" x1="13.0208" y1="13.25" x2="9.35416" y2="6.83333" gradientUnits="userSpaceOnUse">
<stop stop-color="#FFA94F"/>
<stop offset="1" stop-color="#FFE120"/>
</linearGradient>
<linearGradient id="paint1_linear_0_6" x1="5.64583" y1="3.75" x2="3.97917" y2="0.833334" gradientUnits="userSpaceOnUse">
<stop stop-color="#FFA94F"/>
<stop offset="1" stop-color="#FFE120"/>
</linearGradient>
</defs>
</svg>
